<svg width="265" height="100" viewBox="0 0 265 100" fill="none" xmlns="http://www.w3.org/2000/svg">
<path d="M250.339 25.854C239.207 25.9795 225.293 40.1882 224.486 57.4469H226.436V57.425L226.438 57.4018C227.329 43.2596 238.826 34.5776 247.956 33.6975C248.078 33.6857 248.198 33.6814 248.32 33.6726C248.138 34.1354 248.031 34.625 248.004 35.1223C239.661 35.9739 228.707 44.1175 227.843 57.4469H229.79C229.827 57.3743 229.865 57.3057 229.903 57.2339C232.514 50.5758 237.918 46.0777 243.344 46.0454C248.319 46.1013 252.303 49.9355 253.523 55.8426C257.74 48.0253 258.312 42.6125 256.987 39.3793C256.786 38.8888 256.538 38.4452 256.255 38.0401C256.558 37.6134 256.787 37.1374 256.932 36.6327C257.481 37.2642 257.939 37.9962 258.284 38.8366C259.786 42.5041 259.157 47.9238 255.388 55.3209C273.045 37.8545 263.38 25.7069 250.339 25.854ZM253.059 31.6156L253.06 31.6175C253.59 31.6175 254.047 31.6808 254.405 31.7455C254.764 31.8102 255.042 31.8745 255.138 31.881L255.376 31.897V32.1383C255.376 32.2916 255.407 33.1164 255.493 33.6759L255.502 33.738L255.483 33.7972C255.411 34.0149 255.24 34.0617 255.105 34.0848C255.037 34.0963 254.969 34.0984 254.895 34.0834C254.821 34.0687 254.731 34.0378 254.659 33.9443L254.629 33.9052L254.615 33.8579C254.369 32.9987 253.862 32.5982 252.98 32.5982C252.015 32.5982 250.935 33.4035 250.935 35.3126C250.935 37.2252 251.981 38.1484 253.03 38.1484C253.574 38.1484 253.944 37.9601 254.229 37.6918C254.514 37.4235 254.707 37.066 254.833 36.7441L254.853 36.6945L254.89 36.6568C255.031 36.5138 255.177 36.5229 255.308 36.5443C255.44 36.5657 255.592 36.6188 255.679 36.7948L255.711 36.8607L255.704 36.9344C255.632 37.7085 255.483 38.3081 255.288 38.6315L255.236 38.7185L255.139 38.7459C254.605 38.8958 253.868 39.1294 253.04 39.1294C252.019 39.1294 250.97 38.8935 250.196 38.3096L250.195 38.3082L250.194 38.3063C249.425 37.7127 248.823 36.7824 248.823 35.4525C248.823 34.1458 249.387 33.1915 250.126 32.5746C250.896 31.9282 251.97 31.6155 253.059 31.6155L253.059 31.6156ZM224.486 72.3405C225.898 98.1918 247.641 92.1221 247.067 77.4643C245.964 80.6235 244.465 82.8824 242.716 84.3055C240.683 85.9599 238.303 86.4462 236.055 85.8888C231.558 84.7741 227.623 79.7442 226.478 72.4516L226.469 72.3973V72.3405H224.486ZM227.884 72.3405C228.989 79.1679 232.697 83.5963 236.389 84.5114C238.245 84.9714 240.105 84.609 241.836 83.2007C243.429 81.9043 244.895 79.668 245.955 76.3423C244.246 77.6017 242.405 78.4155 240.557 78.7282C237.753 79.5361 235.15 78.6045 232.993 76.6196C231.726 75.5695 230.672 74.1785 229.891 72.5222C229.857 72.4613 229.823 72.4021 229.79 72.3405H227.884Z" fill="#F4F4F4"/>
<path d="M219.574 0.000124783C219.337 -0.0443234 204.897 11.7935 205.807 23.0799C206.358 29.91 209.937 34.9133 213.17 41.4808C215.601 46.4188 217.499 53.3384 217.469 57.4469H219.574V31.1141V24.3953H220.978V57.4469H223.083C223.053 53.3384 224.951 46.4188 227.382 41.4808C230.615 34.9133 234.193 29.91 234.744 23.0799C235.655 11.7935 221.215 -0.0443234 220.978 0.000124783V14.4663H219.574V7.44692V0.000124783ZM219.129 15.7404L219.176 15.9625C219.207 16.1045 219.375 16.4057 219.655 16.7804C219.936 17.1548 220.322 17.6159 220.772 18.1567L220.773 18.1581L221.613 19.1582C221.869 19.4646 221.994 19.5997 222.163 19.796V18.5867C222.163 18.1815 222.153 17.7919 222.13 17.4758C222.107 17.1611 222.061 16.9077 222.033 16.8369C222.013 16.7922 221.993 16.7715 221.934 16.7422C221.874 16.7125 221.774 16.6867 221.651 16.6682L221.297 16.6153L221.238 16.5549C221.112 16.4271 221.106 16.2928 221.111 16.1789C221.115 16.0651 221.112 15.9628 221.238 15.8362L221.316 15.7567L221.427 15.7609C221.966 15.7811 222.352 15.7911 222.758 15.7911C223.124 15.7911 223.479 15.7812 223.866 15.7612L223.979 15.7553L224.059 15.8362C224.184 15.9628 224.182 16.065 224.186 16.1789C224.19 16.2928 224.185 16.4271 224.059 16.5549L224.001 16.6133L223.739 16.6577H223.737C223.623 16.6754 223.54 16.7014 223.49 16.73C223.44 16.7581 223.418 16.7814 223.394 16.8361C223.367 16.9066 223.32 17.1605 223.297 17.4755C223.274 17.7916 223.263 18.1812 223.263 18.5864V21.0027C223.263 21.6599 223.263 22.301 223.283 22.6148L223.288 22.693L223.249 22.7603C223.156 22.9206 223.028 22.9777 222.89 23.0323C222.752 23.0869 222.597 23.121 222.438 23.121L222.361 23.1091C222.361 23.1091 222.329 23.0966 222.318 23.0911C222.298 23.08 222.287 23.0716 222.279 23.065C222.262 23.0518 222.256 23.0448 222.251 23.0392C222.241 23.028 222.237 23.023 222.233 23.0179C222.225 23.0078 222.22 23.0002 222.213 22.991C222.2 22.9728 222.184 22.9499 222.164 22.921C222.124 22.863 222.068 22.7813 221.998 22.6816C221.857 22.4821 221.66 22.211 221.43 21.9236L219.12 19.033C218.742 18.565 218.617 18.4286 218.433 18.2138V18.2227V20.1841C218.433 20.5893 218.443 20.9789 218.466 21.295C218.489 21.6097 218.535 21.8628 218.563 21.9336C218.581 21.9753 218.603 21.9979 218.665 22.0281C218.727 22.0585 218.827 22.0843 218.947 22.1029L219.308 22.1549L219.368 22.2156C219.494 22.3434 219.5 22.4777 219.496 22.5916C219.491 22.7054 219.494 22.8077 219.368 22.9343L219.29 23.014L219.178 23.0099C218.64 22.9897 218.244 22.9797 217.848 22.9797C217.482 22.9797 217.117 22.9896 216.741 23.0096L216.627 23.016L216.547 22.9348C216.422 22.8082 216.424 22.706 216.42 22.5921C216.416 22.4782 216.42 22.344 216.547 22.2162L216.604 22.1585L216.851 22.1145C216.976 22.0911 217.07 22.063 217.124 22.0344C217.177 22.0058 217.191 21.991 217.209 21.9427L217.21 21.94L217.212 21.9372C217.239 21.8704 217.284 21.6136 217.305 21.2972C217.325 20.9808 217.333 20.5906 217.333 20.1844V17.6165C217.333 17.0668 217.32 16.9485 217.284 16.863C217.26 16.8122 217.241 16.7857 217.196 16.756C217.149 16.7252 217.063 16.6903 216.912 16.6685L216.538 16.6147L216.476 16.5427C216.354 16.4015 216.359 16.2799 216.37 16.1551C216.375 16.0927 216.387 16.0294 216.421 15.9609C216.455 15.8924 216.521 15.8064 216.635 15.772L216.676 15.7595L216.719 15.7615C217.185 15.7815 217.682 15.7914 218.088 15.7914C218.423 15.7914 218.708 15.7812 218.904 15.7623L219.129 15.7404ZM217.469 72.3405C217.469 75.1773 216.932 78.5394 215.821 81.3955C214.44 84.9469 212.983 88.4943 213.716 92.0338C214.488 95.7567 219.574 100 219.574 100V72.3405H217.469ZM220.978 72.3405V100C220.978 100 226.064 95.7567 226.836 92.0338C227.569 88.4943 226.112 84.9469 224.731 81.3955C223.62 78.5394 223.083 75.1773 223.083 72.3405H220.978Z" fill="#F4F4F4"/>
<path d="M190.212 25.854C189.397 25.8448 188.596 25.8835 187.813 25.9687C187.813 25.9687 187.813 25.9687 187.813 25.9687C187.03 26.0538 186.266 26.1854 185.528 26.3615C185.528 26.3615 185.527 26.3615 185.528 26.3615C184.789 26.5376 184.075 26.7584 183.392 27.022C182.708 27.2856 182.056 27.5923 181.44 27.9401C181.44 27.94 181.44 27.9401 181.44 27.9401C180.824 28.2878 180.244 28.6769 179.707 29.1053C178.633 29.9623 177.729 30.9772 177.041 32.1367C176.353 33.2961 175.882 34.5999 175.673 36.0346C175.413 37.8279 175.564 39.8255 176.217 42.0009C176.61 43.3062 177.183 44.6755 177.956 46.103C179.504 48.9578 181.854 52.0456 185.164 55.3204C181.395 47.9236 180.766 42.504 182.269 38.8366C182.584 38.0684 182.997 37.394 183.484 36.8006C183.556 37.3857 183.739 37.9513 184.022 38.4667C183.853 38.7533 183.699 39.0553 183.566 39.3793C182.241 42.6125 182.813 48.0253 187.029 55.8426C187.627 52.9507 188.905 50.4878 190.711 48.7498C192.517 47.0119 194.773 46.0728 197.208 46.0454C199.855 46.0611 202.574 47.1485 204.985 49.155C207.395 51.1615 209.376 53.9865 210.65 57.2339C210.687 57.3057 210.725 57.3743 210.763 57.4469H212.71C211.843 44.0728 200.817 35.9149 192.463 35.1096C192.45 35.1083 192.438 35.1091 192.425 35.1079C192.293 34.5837 192.07 34.087 191.768 33.6407C192.042 33.6522 192.318 33.6707 192.596 33.6975C201.726 34.5776 213.223 43.2596 214.115 57.4018L214.117 57.425V57.4469H216.067C216.033 56.7322 215.972 56.0244 215.895 55.3209H215.892C215.055 47.698 211.712 40.7812 207.299 35.5672C207.28 35.5443 207.26 35.5219 207.24 35.4991C206.981 35.1944 206.718 34.8964 206.452 34.6037C206.4 34.5468 206.348 34.4903 206.296 34.4339C206.057 34.1746 205.815 33.9203 205.571 33.6709C205.509 33.6067 205.446 33.5421 205.383 33.4786C205.131 33.2251 204.876 32.9776 204.62 32.7348C204.571 32.6891 204.523 32.6419 204.475 32.5965C203.863 32.0252 203.239 31.485 202.606 30.9778C202.521 30.9099 202.435 30.8456 202.349 30.7789C202.128 30.6054 201.906 30.4345 201.682 30.2691C201.559 30.1784 201.435 30.0909 201.312 30.0026C201.123 29.8677 200.934 29.7349 200.744 29.6059C200.605 29.5118 200.466 29.419 200.327 29.328C200.151 29.2132 199.974 29.1022 199.798 28.9926C199.651 28.9015 199.504 28.8099 199.357 28.7224C199.18 28.6173 199.002 28.5178 198.824 28.418C198.679 28.3368 198.535 28.2526 198.39 28.175C198.185 28.0654 197.98 27.9638 197.774 27.8614C197.516 27.7328 197.258 27.6107 196.999 27.4938C194.71 26.4587 192.408 25.8787 190.213 25.854H190.212ZM188.034 32.4882C190.229 32.4882 191.8 34.0407 191.8 36.2141C191.8 37.3737 191.41 38.3336 190.722 38.992C190.033 39.6504 189.061 40.0004 187.934 40.0004C186.873 40.0004 185.937 39.6455 185.268 38.9972C184.6 38.349 184.208 37.4116 184.208 36.295C184.208 34.1647 185.819 32.4882 188.034 32.4882ZM187.954 33.4692C187.418 33.4692 187.043 33.7007 186.762 34.143C186.481 34.5853 186.319 35.2521 186.319 36.0623C186.319 36.6487 186.427 37.4244 186.712 38.0199C186.998 38.6153 187.411 39.0194 188.124 39.0194C188.696 39.0194 189.045 38.7675 189.303 38.2999C189.561 37.8324 189.69 37.1373 189.69 36.3454C189.69 35.5187 189.507 34.7774 189.197 34.2643C188.887 33.7513 188.479 33.4692 187.954 33.4692ZM210.762 72.3405C210.729 72.4021 210.695 72.4613 210.661 72.5222C209.88 74.1785 208.826 75.5695 207.558 76.6196C205.401 78.6045 202.798 79.5361 199.995 78.7282C198.147 78.4155 196.306 77.6017 194.597 76.3423C195.657 79.668 197.123 81.9043 198.716 83.2007C200.447 84.609 202.307 84.9714 204.163 84.5114C207.854 83.5963 211.562 79.1679 212.667 72.3405H210.762ZM214.083 72.3405V72.3973L214.074 72.4516C212.929 79.7442 208.994 84.7741 204.497 85.8888C202.249 86.4462 199.869 85.9599 197.836 84.3055C196.087 82.8824 194.588 80.6235 193.485 77.4643C192.91 92.1221 214.653 98.1918 216.066 72.3405H214.083Z" fill="#F4F4F4"/>
<path d="M204.212 70.87V69.4727L209.525 61.8636C209.669 61.6616 209.814 61.4708 209.958 61.2912C210.113 61.1117 210.23 60.9826 210.308 60.904L210.424 60.7862V60.7525C210.191 60.775 209.891 60.7862 209.525 60.7862H206.66C206.416 60.7862 206.294 60.9097 206.294 61.1566V61.8804H204.312V60.0623C204.312 59.6695 204.401 59.3833 204.578 59.2038C204.756 59.013 205.045 58.9176 205.444 58.9176H213.122V60.298L207.81 67.924C207.665 68.126 207.515 68.3168 207.36 68.4963C207.215 68.6759 207.104 68.805 207.027 68.8835L206.91 69.0014V69.035C207.143 69.0126 207.443 69.0014 207.81 69.0014H211.041C211.285 69.0014 211.407 68.8779 211.407 68.631V67.9071H213.372V69.7252C213.372 70.1293 213.284 70.421 213.106 70.6006C212.928 70.7802 212.639 70.87 212.24 70.87H204.212Z" fill="#F4F4F4"/>
<path d="M215.371 70.87V61.1566C215.371 60.9097 215.249 60.7862 215.005 60.7862H214.288V58.9176H216.42C216.82 58.9176 217.109 59.013 217.286 59.2038C217.464 59.3833 217.553 59.6695 217.553 60.0623V63.9847H222.766V60.0623C222.766 59.2992 223.143 58.9176 223.898 58.9176H226.03V60.7862H225.314C225.07 60.7862 224.948 60.9097 224.948 61.1566V70.87H222.766V65.8533H217.553V70.87H215.371Z" fill="#F4F4F4"/>
<path d="M228.245 70.87V60.7862H227.163V58.9176H232.576C233.686 58.9176 234.591 59.2767 235.291 59.995C235.99 60.7133 236.34 61.6504 236.34 62.8063C236.34 63.9623 235.99 64.9106 235.291 65.6513C234.591 66.3808 233.686 66.7456 232.576 66.7456H230.427V70.87H228.245ZM230.427 64.8601H232.176C232.787 64.8601 233.259 64.6749 233.592 64.3046C233.936 63.9342 234.108 63.4348 234.108 62.8063C234.108 62.1891 233.941 61.7009 233.608 61.3417C233.275 60.9714 232.809 60.7862 232.209 60.7862H230.427V64.8601Z" fill="#F4F4F4"/>
<path d="M38.8768 22.4814C39.1372 22.1807 39.1 21.3536 38.7652 21.1656C37.7238 21.2408 36.6452 21.2784 35.3434 21.2784C34.2276 21.2784 32.7398 21.2408 31.5496 21.1656C31.2149 21.3536 31.1405 22.1431 31.438 22.4814L32.2563 22.707C32.7398 22.8574 32.963 22.9702 32.963 23.2333C32.963 23.6468 32.2191 25.7897 31.9588 26.4288C30.1735 31.0152 28.4253 35.6769 26.64 40.0378C26.4169 39.5114 25.9706 38.4212 25.0035 36.3536L23.2554 32.5566C22.995 31.9551 22.9579 31.7295 22.9579 31.6167C22.9579 31.4288 23.4414 30.3385 23.7761 29.6619C24.2596 28.6844 25.1895 26.9551 26.0821 25.4138C27.3839 23.1581 27.6443 23.0077 28.9089 22.7446L29.9503 22.519C30.285 22.2559 30.2106 21.3536 29.9131 21.1656C28.9461 21.2408 27.5699 21.2784 26.1193 21.2784C24.8919 21.2784 23.5529 21.2408 22.4743 21.1656C22.1396 21.3536 22.1024 22.2183 22.3627 22.4814L23.4786 22.7446C24.0737 22.895 24.2224 23.0077 24.2224 23.2709C24.2224 23.4965 23.8505 24.6243 23.2182 26.0528L22.8835 26.8047C22.5115 27.6318 22.1396 28.3837 21.7676 29.1731C21.4329 28.4965 21.061 27.6694 20.7262 26.8799L19.6104 24.2859C19.4244 23.8724 19.2757 23.4589 19.2757 23.1581C19.2757 22.895 19.8336 22.7446 20.2799 22.6318L20.9122 22.4814C21.1725 22.2935 21.2097 21.2784 20.7634 21.1656C19.7964 21.2408 18.383 21.2784 16.4861 21.2784C14.8496 21.2784 13.399 21.2408 11.7997 21.1656C11.3906 21.316 11.3162 22.1807 11.6881 22.4814L12.0601 22.519C13.4734 22.6694 13.7338 22.9326 14.5892 24.8123L18.1598 32.7446C18.3086 33.1205 18.383 33.534 18.383 33.7596C18.383 33.9852 18.1598 34.8122 17.8995 35.4137L17.416 36.5039C16.6721 38.1957 16.077 39.3235 15.6307 40.1505C15.1843 39.2483 14.8124 38.4588 13.771 36.128L10.0888 27.8198C8.93577 25.1882 8.1547 23.4213 8.1547 23.1581C8.1547 22.895 8.41506 22.707 9.08455 22.5942L9.75403 22.4814C10.126 22.2559 9.9772 21.316 9.67965 21.1656C8.26628 21.2408 6.81572 21.2784 5.17919 21.2784C3.28231 21.2784 1.72016 21.2408 0.343991 21.1656C-0.06514 21.3536 -0.102334 22.1055 0.195218 22.4814L1.12506 22.6694C2.35246 22.9326 2.57562 23.1205 3.57986 25.3386L9.67965 38.7972C10.9442 41.6167 12.432 45.0002 13.0271 46.5791C13.3618 46.7671 13.585 46.8798 13.9941 46.8798C14.552 46.8798 15.0356 46.7671 15.2215 46.5791C15.8166 45.3385 16.2258 44.2483 16.7837 43.0453L18.5318 39.2107C19.0153 38.1581 19.4616 37.2558 19.7964 36.6167C20.1311 37.1806 20.6146 38.3084 21.1354 39.5114L22.6975 43.0829C23.1438 44.1355 23.7017 45.4889 24.1109 46.3911C24.3712 46.5791 24.706 46.6919 25.1151 46.6919C25.5986 46.6919 26.1193 46.5791 26.3425 46.3911C28.165 41.5039 32.3679 32.1431 34.1904 27.7446C35.1946 25.3762 35.8269 24.1732 36.2361 23.5717C36.4964 23.2333 36.9055 22.9326 37.761 22.7446L38.8768 22.4814Z" fill="#F4F4F4"/>
<path d="M40.3527 41.7842C40.3527 44.5354 40.1752 44.7447 38.8438 44.984L38.045 45.1335C37.8083 45.283 37.8083 46.0007 38.045 46.1801C39.5835 46.1203 40.8853 46.0904 42.3646 46.0904C43.7847 46.0904 45.1457 46.1203 46.7137 46.1801C46.9208 46.0007 46.9208 45.283 46.7137 45.1335L45.9149 44.984C44.5835 44.7447 44.406 44.5354 44.406 41.7842V38.106C44.406 37.5079 44.4652 37.4481 45.5007 37.4481C46.2403 37.4481 46.7137 37.6873 47.0688 38.4947C47.7492 40.0797 48.4297 41.545 49.3765 43.1299C50.6782 45.283 52.3942 46.2698 55.1161 46.2698C56.0333 46.2698 56.9801 46.21 57.4534 46.0007C57.6014 45.8213 57.6014 45.3727 57.3351 45.2232C56.8913 45.1933 56.1221 45.0139 55.3528 44.3859C53.9327 43.1598 52.7197 40.917 50.767 36.9098C50.6191 36.5809 50.6191 36.4014 50.9149 36.2519C52.2759 35.5641 54.0511 34.4278 54.0511 31.7663C54.0511 29.8524 53.1635 28.3572 51.4475 27.3405C50.3232 26.6527 48.1634 26.2639 45.6486 26.2639C42.8379 26.2639 40.5302 26.3835 38.3113 26.5331C37.9563 26.6826 37.9562 27.4302 38.2521 27.5797L39.0509 27.6993C40.2935 27.8787 40.3527 28.2077 40.3527 31.1981V41.7842ZM44.406 29.1646C44.406 27.7292 44.4652 27.6395 45.6782 27.6395C47.9859 27.6395 49.554 29.374 49.554 32.0653C49.554 33.8297 48.9918 34.7866 48.4889 35.295C47.9267 35.8632 47.3054 36.1323 46.2403 36.1323C44.4948 36.1323 44.406 36.0426 44.406 34.996V29.1646Z" fill="#F4F4F4"/>
<path d="M67.4831 25.8751C61.2996 25.8751 56.9208 30.4505 56.9208 36.3715C56.9208 42.6215 61.2404 46.5688 67.1872 46.5688C73.5482 46.5688 77.8677 42.6514 77.8677 36.1323C77.8677 30.0617 73.6369 25.8751 67.4831 25.8751ZM73.134 36.521C73.134 41.3655 71.6251 45.1932 67.7493 45.1932C62.9268 45.1932 61.6546 39.332 61.6546 35.6837C61.6546 30.6897 63.6073 27.2507 67.2464 27.2507C70.915 27.2507 73.134 31.4074 73.134 36.521Z" fill="#F4F4F4"/>
<path d="M92.0098 25.8751C88.9329 25.8751 85.9151 26.7722 83.8145 28.5366C81.773 30.2411 80.2346 32.8129 80.2346 36.4612C80.2346 40.1693 81.8618 42.6514 83.992 44.2961C86.0926 45.881 89.0512 46.5688 91.9506 46.5688C94.2583 46.5688 96.3589 45.911 97.9566 45.4624C98.3708 44.7746 98.8738 42.9803 99.0809 40.7674C98.9033 40.4086 98.1933 40.3189 97.9566 40.5581C97.1578 42.5916 95.501 45.1932 91.921 45.1932C88.3707 45.1932 84.9683 41.9935 84.9683 36.0426C84.9683 30.0916 88.4891 27.2507 91.7731 27.2507C94.643 27.2507 96.5365 28.7459 97.3353 31.527C97.5424 31.7962 98.3412 31.6765 98.4596 31.3177C98.1933 29.5832 98.1045 27.1909 98.1045 26.6526C97.2169 26.5928 95.0276 25.8751 92.0098 25.8751Z" fill="#F4F4F4"/>
<path d="M111.329 33.9194C111.418 33.411 111.152 32.6634 110.708 32.5737L107.217 34.7567V30.6598C107.217 27.8787 107.395 27.6395 108.726 27.4302L109.495 27.3106C109.732 27.1311 109.732 26.4433 109.495 26.2639C107.986 26.3237 106.537 26.3536 105.116 26.3536C103.637 26.3536 102.158 26.3237 100.619 26.2639C100.323 26.4433 100.323 27.1311 100.619 27.3106L101.477 27.4302C102.809 27.6096 102.986 27.8787 102.986 30.6598V37.3883L100.028 39.2423C99.9093 39.8105 100.264 40.4684 100.56 40.6777L102.986 39.1526V41.7842C102.986 44.5653 102.809 44.8045 101.477 44.984L100.353 45.1335C100.116 45.3129 100.176 46.0007 100.442 46.1801C102.276 46.1203 103.755 46.0904 105.116 46.0904H109.081C111.507 46.0904 114.347 46.1203 115.915 46.1801C116.33 45.3727 117.04 42.8907 117.188 41.3356C116.98 40.9768 116.3 40.8572 116.063 41.1562C114.318 44.6251 113.489 44.7148 110.797 44.7148C108.637 44.7148 108.105 44.4756 107.72 43.9672C107.335 43.4887 107.217 42.5318 107.217 41.1263V36.4912L111.329 33.9194Z" fill="#F4F4F4"/>
<path d="M126.862 39.332C127.898 39.332 128.134 39.3918 128.282 39.8703L129.081 42.4421C129.436 43.5485 129.643 44.2662 129.643 44.4755C129.643 44.655 129.525 44.8643 128.844 44.9839L127.898 45.1334C127.572 45.3727 127.631 46.0007 127.957 46.1801C129.318 46.1203 130.472 46.0904 131.951 46.0904C133.489 46.0904 135.087 46.1203 136.507 46.1801C136.773 46.0007 136.714 45.283 136.537 45.1334L135.412 44.954C134.318 44.7746 134.052 44.0868 133.43 42.2925L129.407 30.5701C128.667 28.4469 128.312 27.3404 128.075 26.4732C127.957 26.0246 127.779 25.8751 127.395 25.8751C127.335 25.8751 126.241 27.3404 124.821 27.6694C124.909 28.5366 124.347 29.5832 123.667 31.4672L121.004 38.7638C120.205 40.9169 119.673 42.3523 119.17 43.5485C118.667 44.7148 118.075 44.954 117.365 45.0437L116.566 45.1334C116.359 45.3727 116.329 46.0007 116.655 46.1801C118.016 46.1801 118.696 46.0904 119.702 46.0904C120.945 46.1203 122.128 46.1203 123.164 46.1801C123.46 46.0306 123.401 45.3428 123.223 45.1334L122.335 44.9839C121.507 44.8344 121.27 44.655 121.27 44.4755C121.27 44.2363 121.3 43.9971 121.477 43.399L122.572 39.9301C122.75 39.3619 122.838 39.332 123.548 39.332H126.862ZM124.14 37.7471C123.401 37.7471 123.253 37.6574 123.519 36.85L124.259 34.6072C124.702 33.2316 125.176 31.9756 125.472 31.3177C125.738 31.9457 126.122 33.1718 126.537 34.4576L127.306 36.8799C127.543 37.6574 127.395 37.7471 126.714 37.7471H124.14Z" fill="#F4F4F4"/>
<path d="M162.927 27.3106C163.135 27.0713 163.105 26.4134 162.839 26.2639C162.01 26.3237 161.152 26.3536 160.117 26.3536C159.229 26.3536 158.046 26.3237 157.099 26.2639C156.833 26.4134 156.774 27.0414 157.01 27.3106L157.661 27.49C158.046 27.6096 158.223 27.6993 158.223 27.9086C158.223 28.2376 157.632 29.9421 157.424 30.4505C156.004 34.0988 154.614 37.8069 153.194 41.2758C153.016 40.8572 152.661 39.99 151.892 38.3452L150.501 35.3249C150.294 34.8464 150.265 34.667 150.265 34.5773C150.265 34.4278 150.649 33.5605 150.916 33.0223C151.3 32.2448 152.04 30.8692 152.75 29.6431C153.785 27.8488 153.992 27.7292 154.998 27.5199L155.827 27.3405C156.093 27.1311 156.034 26.4134 155.797 26.2639C155.028 26.3237 153.933 26.3536 152.779 26.3536C151.803 26.3536 150.738 26.3237 149.88 26.2639C149.614 26.4134 149.584 27.1012 149.791 27.3106L150.679 27.5199C151.152 27.6395 151.271 27.7292 151.271 27.9386C151.271 28.118 150.975 29.0151 150.472 30.1515L150.205 30.7495C149.91 31.4074 149.614 32.0055 149.318 32.6335C149.052 32.0952 148.756 31.4373 148.489 30.8094L147.602 28.746C147.454 28.417 147.336 28.0881 147.336 27.8488C147.336 27.6395 147.779 27.5199 148.134 27.4302L148.637 27.3106C148.844 27.161 148.874 26.3536 148.519 26.2639C147.75 26.3237 146.626 26.3536 145.117 26.3536C143.815 26.3536 142.661 26.3237 141.389 26.2639C141.063 26.3835 141.004 27.0713 141.3 27.3106L141.596 27.3405C142.72 27.4601 142.927 27.6694 143.608 29.1646L146.448 35.4744C146.566 35.7735 146.626 36.1024 146.626 36.2818C146.626 36.4613 146.448 37.1191 146.241 37.5976L145.856 38.4648C145.265 39.8105 144.791 40.7077 144.436 41.3655C144.081 40.6478 143.785 40.0199 142.957 38.1658L140.028 31.557C139.111 29.4637 138.489 28.0582 138.489 27.8488C138.489 27.6395 138.696 27.49 139.229 27.4003L139.762 27.3106C140.057 27.1311 139.939 26.3835 139.702 26.2639C138.578 26.3237 137.424 26.3536 136.122 26.3536C134.614 26.3536 133.371 26.3237 132.276 26.2639C131.951 26.4134 131.921 27.0115 132.158 27.3106L132.898 27.4601C133.874 27.6694 134.051 27.8189 134.85 29.5833L139.702 40.289C140.708 42.5318 141.892 45.2232 142.365 46.4792C142.631 46.6287 142.809 46.7184 143.134 46.7184C143.578 46.7184 143.963 46.6287 144.111 46.4792C144.584 45.4923 144.91 44.6251 145.353 43.6682L146.744 40.6179C147.128 39.7806 147.484 39.0629 147.75 38.5546C148.016 39.0031 148.401 39.9002 148.815 40.8572L150.058 43.6981C150.413 44.5354 150.856 45.6119 151.182 46.3296C151.389 46.4792 151.655 46.5689 151.981 46.5689C152.365 46.5689 152.779 46.4792 152.957 46.3296C154.407 42.4421 157.75 34.9959 159.2 31.4972C159.998 29.6132 160.501 28.6563 160.827 28.1778C161.034 27.9086 161.359 27.6694 162.04 27.5199L162.927 27.3106Z" fill="#F4F4F4"/>
<path d="M48.1077 54.4361C48.368 54.1354 48.3308 53.3083 47.9961 53.1204C46.9546 53.1955 45.876 53.2331 44.5742 53.2331C43.4584 53.2331 41.9707 53.1955 40.7805 53.1204C40.4457 53.3083 40.3713 54.0978 40.6689 54.4361L41.4871 54.6617C41.9707 54.8121 42.1938 54.9249 42.1938 55.188C42.1938 55.6016 41.45 57.7444 41.1896 58.3835C39.4043 62.97 37.6562 67.6316 35.8709 71.9925C35.6477 71.4662 35.2014 70.3759 34.2343 68.3083L32.4862 64.5113C32.2259 63.9098 32.1887 63.6842 32.1887 63.5715C32.1887 63.3835 32.6722 62.2933 33.0069 61.6166C33.4905 60.6391 34.4203 58.9098 35.313 57.3685C36.6148 55.1128 36.8751 54.9625 38.1397 54.6993L39.1811 54.4737C39.5159 54.2106 39.4415 53.3083 39.1439 53.1204C38.1769 53.1955 36.8007 53.2331 35.3502 53.2331C34.1228 53.2331 32.7838 53.1955 31.7052 53.1204C31.3704 53.3083 31.3332 54.173 31.5936 54.4361L32.7094 54.6993C33.3045 54.8497 33.4533 54.9625 33.4533 55.2256C33.4533 55.4512 33.0813 56.579 32.449 58.0076L32.1143 58.7594C31.7424 59.5865 31.3704 60.3384 30.9985 61.1279C30.6637 60.4512 30.2918 59.6241 29.9571 58.8346L28.8412 56.2407C28.6553 55.8271 28.5065 55.4136 28.5065 55.1128C28.5065 54.8497 29.0644 54.6993 29.5107 54.5865L30.143 54.4361C30.4034 54.2482 30.4406 53.2331 29.9942 53.1204C29.0272 53.1955 27.6138 53.2331 25.717 53.2331C24.0804 53.2331 22.6299 53.1955 21.0305 53.1204C20.6214 53.2707 20.547 54.1354 20.9189 54.4361L21.2909 54.4737C22.7043 54.6241 22.9646 54.8873 23.8201 56.767L27.3907 64.6993C27.5395 65.0752 27.6138 65.4887 27.6138 65.7143C27.6138 65.9399 27.3907 66.7669 27.1303 67.3684L26.6468 68.4587C25.9029 70.1504 25.3078 71.2782 24.8615 72.1053C24.4152 71.203 24.0432 70.4135 23.0018 68.0827L19.3196 59.7745C18.1666 57.1429 17.3855 55.376 17.3855 55.1128C17.3855 54.8497 17.6459 54.6617 18.3154 54.5489L18.9849 54.4361C19.3568 54.2106 19.208 53.2707 18.9105 53.1204C17.4971 53.1955 16.0466 53.2331 14.41 53.2331C12.5131 53.2331 10.951 53.1955 9.57483 53.1204C9.1657 53.3083 9.1285 54.0602 9.42605 54.4361L10.3559 54.6241C11.5833 54.8873 11.8065 55.0752 12.8107 57.2933L18.9105 70.7519C20.1751 73.5714 21.6628 76.9549 22.2579 78.5338C22.5927 78.7218 22.8158 78.8346 23.225 78.8346C23.7829 78.8346 24.2664 78.7218 24.4524 78.5338C25.0475 77.2932 25.4566 76.203 26.0145 75L27.7626 71.1654C28.2461 70.1128 28.6925 69.2105 29.0272 68.5714C29.362 69.1353 29.8455 70.2632 30.3662 71.4662L31.9283 75.0376C32.3747 76.0902 32.9326 77.4436 33.3417 78.3458C33.6021 78.5338 33.9368 78.6466 34.3459 78.6466C34.8295 78.6466 35.3502 78.5338 35.5733 78.3458C37.3958 73.4586 41.5987 64.0978 43.4212 59.6993C44.4255 57.3309 45.0578 56.1279 45.4669 55.5264C45.7272 55.188 46.1364 54.8873 46.9918 54.6993L48.1077 54.4361Z" fill="#F4F4F4"/>
<path d="M60.3232 72.4531C60.3232 69.1637 57.9859 67.4292 56.1516 66.4424L54.1989 65.3957C52.7196 64.6182 51.5066 63.3622 51.5066 61.9866C51.5066 60.4914 52.5717 59.2055 54.5244 59.2055C56.6546 59.2055 57.9268 61.3886 58.4297 62.9137C58.696 63.2127 59.4356 63.1828 59.5836 62.824C59.5836 60.8204 59.2877 59.2056 59.051 58.5477C58.696 58.4879 58.4297 58.428 58.0451 58.3084C56.8617 57.9496 55.6486 57.83 54.6723 57.83C50.3823 57.83 47.7788 60.1625 47.8083 63.5417C47.8083 66.5022 50.1456 68.2964 52.2758 69.373C54.051 70.2701 56.2995 71.7055 56.2995 74.1278C56.2995 75.623 55.2936 77.1481 53.1042 77.1481C50.5894 77.1481 48.6072 74.3969 48.0154 72.4531C47.7788 72.1242 47.0983 72.1541 46.8912 72.5428C46.8912 74.5763 47.2758 76.7294 47.8379 77.3873C48.4592 77.7462 50.1456 78.5237 52.8676 78.5237C57.335 78.5237 60.3232 76.1313 60.3232 72.4531Z" fill="#F4F4F4"/>
<path d="M74.1399 57.83C71.0629 57.83 68.0451 58.7271 65.9445 60.4914C63.9031 62.196 62.3646 64.7677 62.3646 68.4161C62.3646 72.1242 63.9919 74.6062 66.1221 76.251C68.2227 77.8359 71.1813 78.5237 74.0807 78.5237C76.3884 78.5237 78.489 77.8658 80.0867 77.4172C80.5009 76.7294 81.0038 74.9352 81.2109 72.7223C81.0334 72.3634 80.3233 72.2737 80.0867 72.5129C79.2878 74.5464 77.631 77.1481 74.0511 77.1481C70.5008 77.1481 67.0984 73.9483 67.0984 67.9974C67.0984 62.0464 70.6191 59.2055 73.9032 59.2055C76.773 59.2055 78.6665 60.7008 79.4654 63.4819C79.6725 63.751 80.4713 63.6314 80.5896 63.2725C80.3233 61.5381 80.2346 59.1457 80.2346 58.6075C79.347 58.5477 77.1576 57.83 74.1399 57.83Z" fill="#F4F4F4"/>
<path d="M96.5661 68.5655C97.8087 68.5655 97.8087 68.5954 97.8087 69.4327V73.7389C97.8087 76.52 97.6608 76.8191 96.2998 76.9985L95.6489 77.0882C95.4122 77.2676 95.4122 77.9554 95.6489 78.1348C97.069 78.075 98.5188 78.0451 99.9981 78.0451C101.359 78.0451 102.809 78.075 104.288 78.1348C104.525 77.9554 104.525 77.2676 104.288 77.0882L103.578 76.9686C102.217 76.7293 102.039 76.52 102.039 73.7389V62.6145C102.039 59.8335 102.217 59.5643 103.578 59.355L104.17 59.2653C104.406 59.0859 104.406 58.3981 104.17 58.2186C102.809 58.2784 101.448 58.3083 99.9981 58.3083C98.5779 58.3083 97.1282 58.2784 95.501 58.2186C95.2643 58.3981 95.2643 59.0859 95.501 59.2653L96.2998 59.3849C97.6608 59.5942 97.8087 59.8335 97.8087 62.6145V66.0834C97.8087 66.9507 97.8087 66.9806 96.5661 66.9806H90.4122C89.1992 66.9806 89.1696 66.9507 89.1696 66.0834V62.6145C89.1696 59.8335 89.3471 59.5344 90.6193 59.355L91.2406 59.2653C91.4773 59.0859 91.4773 58.3981 91.2406 58.2186C89.9388 58.2784 88.4595 58.3083 87.1281 58.3083C85.708 58.3083 84.1695 58.2784 82.7198 58.2186C82.4831 58.3981 82.4831 59.0859 82.7198 59.2653L83.4299 59.355C84.7908 59.5344 84.9388 59.8335 84.9388 62.6145V73.7389C84.9388 76.52 84.7908 76.8191 83.4299 76.9985L82.7198 77.0882C82.4831 77.2676 82.4831 77.9554 82.7198 78.1348C84.2287 78.075 85.708 78.0451 87.1281 78.0451C88.4595 78.0451 89.9388 78.075 91.6252 78.1348C91.8619 77.9554 91.8619 77.2676 91.6252 77.0882L90.6785 76.9686C89.3471 76.7891 89.1696 76.52 89.1696 73.7389V69.4327C89.1696 68.5954 89.1992 68.5655 90.4122 68.5655H96.5661Z" fill="#F4F4F4"/>
<path d="M117.158 57.8299C110.974 57.8299 106.596 62.4052 106.596 68.3262C106.596 74.5762 110.915 78.5236 116.862 78.5236C123.223 78.5236 127.543 74.6061 127.543 68.087C127.543 62.0165 123.312 57.8299 117.158 57.8299ZM122.809 68.4758C122.809 73.3202 121.3 77.148 117.424 77.148C112.602 77.148 111.329 71.2868 111.329 67.6385C111.329 62.6444 113.282 59.2055 116.921 59.2055C120.59 59.2055 122.809 63.3621 122.809 68.4758ZM114.909 56.1851C114.821 56.5141 114.998 56.843 115.235 56.9327L121.034 55.0189C121.625 54.8394 121.921 54.5105 121.98 54.2713C122.04 54.0619 122.04 53.6134 121.685 52.9854C121.33 52.2976 120.975 52.0583 120.679 52.0583C120.472 52.0583 120.176 52.2079 119.702 52.5667L114.909 56.1851Z" fill="#F4F4F4"/>
<path d="M132.099 73.7389C132.099 76.4901 131.921 76.7293 130.59 76.9387L129.673 77.0882C129.436 77.2377 129.436 77.9554 129.673 78.1348C131.359 78.075 132.868 78.0451 134.288 78.0451C135.353 78.0451 136.833 78.2246 138.223 78.2246C141.27 78.2246 143.697 77.8358 145.708 76.8191C149.111 75.1145 151.004 71.8849 151.004 67.8777C151.004 64.1397 148.874 60.611 144.998 59.2055C142.957 58.4579 140.531 58.2186 138.105 58.2186C134.969 58.2186 132.661 58.3382 130.176 58.4878C129.821 58.5177 129.821 59.3849 130.117 59.5344L130.679 59.5942C132.04 59.7437 132.099 60.3119 132.099 63.1528V73.7389ZM136.33 61.7174C136.33 60.7904 136.359 60.2222 136.537 59.983C136.714 59.7437 137.276 59.5942 138.075 59.5942C143.43 59.5942 146.241 62.794 146.241 68.1767C146.241 72.2437 144.495 76.849 139.377 76.849C138.312 76.849 137.454 76.5798 136.921 75.9817C136.389 75.3537 136.33 74.2772 136.33 72.6325V61.7174Z" fill="#F4F4F4"/>
</svg>
