<?xml version="1.0" encoding="UTF-8"?>
<svg id="Warstwa_1" data-name="Warstwa 1" xmlns="http://www.w3.org/2000/svg" viewBox="0 0 1281.36 763.38">
  <defs>
    <style>
      .cls-1 {
        fill: none;
        stroke: #382259;
        stroke-width: 12px;
      }

      .cls-1, .cls-2 {
        stroke-miterlimit: 10;
      }

      .cls-3 {
        fill: #fff;
      }

      .cls-3, .cls-4 {
        stroke-width: 0px;
      }

      .cls-4 {
        fill: #382259;
      }

      .cls-2 {
        fill: #5d2f87;
        stroke: #fff;
        stroke-width: 9px;
      }
    </style>
  </defs>
  <g>
    <path class="cls-4" d="M511.83,342.65c-.6-1.58-1.72-1.93-3.36-1.71l-1.83.24-1.41-10.67,8.17-1.08c4.81-.63,7.56.18,9.2,4.46l14.69,39.45c1.37,3.73,2.1,7.06,2.1,7.06l.19-.03s-.05-3.32.49-7.4l6.34-47.7,10.67-1.41,17.8,44.52c1.58,3.8,2.3,7.03,2.3,7.03l.19-.03s-.15-3.4.2-7.36l4.06-41.92c.38-4.55,2.82-6.05,7.63-6.68l8.27-1.09,1.41,10.67-1.83.24c-1.73.23-2.63.84-2.8,2.52l-6.92,57.36-14.52,1.91-15.48-37.29c-1.72-4.17-2.85-8.23-2.85-8.23l-.19.03s-.04,4.12-.71,8.7l-5.77,40.09-14.62,1.93-21.45-53.63Z"/>
    <path class="cls-4" d="M609.34,349.08c-.19-1.44-1.05-2.01-2.39-1.84l-3.85.51-1.37-10.39,11.16-1.47c4.33-.57,6.78.97,7.33,5.1l.38,2.88c.24,1.83.21,3.1.21,3.1l.19-.03c1.29-7.31,6.42-13.66,13.92-14.65,1.06-.14,2.24-.1,2.24-.1l1.58,12.02s-1.28-.03-3.01.2c-5.19.68-10.76,4.45-12.01,12.05-.36,2.49-.39,5.24,0,8.12l2.56,19.43-12.12,1.6-4.82-36.54Z"/>
    <path class="cls-4" d="M667.26,327.55c15-1.98,28.33,7.13,30.31,22.13,1.99,15.1-8.54,27.25-23.54,29.23-14.91,1.96-28.23-7.04-30.21-22.14-1.98-15,8.54-27.25,23.45-29.21ZM672.66,368.52c7.98-1.05,13.81-8.08,12.6-17.22-1.19-9.04-8.65-14.42-16.63-13.36-7.89,1.04-13.7,8.16-12.51,17.2,1.2,9.14,8.65,14.42,16.54,13.38Z"/>
    <path class="cls-4" d="M727.18,319.66c6.35-.84,18.13.25,19.25,8.71l.76,5.77-10.77,1.42-.35-2.69c-.36-2.69-4.55-3.31-7.53-2.92-8.46,1.12-13.67,8.36-12.51,17.2,1.32,10,9.39,14.12,17.28,13.08,8.37-1.1,13.65-8.55,13.65-8.55l6.21,7.79s-6.14,9.81-19.51,11.57c-16.16,2.13-28.05-7.95-29.93-22.18-1.83-13.85,6.62-26.99,23.45-29.21Z"/>
    <path class="cls-4" d="M760.47,338.46l-5.88,4.4-1.58-12.02,5.87-4.49-2.14-16.25c-.19-1.44-1.05-2.01-2.39-1.84l-3.85.51-1.37-10.39,11.64-1.53c4.52-.6,6.71,1.17,7.3,5.69l2.01,15.29,6.5-4.87,1.57,11.93-6.49,4.96,2.9,22.02c.18,1.35,1.05,2.01,2.39,1.84l3.85-.51,1.36,10.29-11.64,1.53c-4.52.6-6.7-1.07-7.31-5.69l-2.75-20.87Z"/>
    <path class="cls-4" d="M813.02,328.11l1.54-.2-.05-.38c-.93-7.02-4.06-9.25-10.31-8.43-2.21.29-6.46,1.44-6.11,4.13l.34,2.6-11.35,1.5-.68-5.19c-1.2-9.14,11.56-11.79,16.65-12.47,16.35-2.15,22.29,5.77,23.73,16.73l2.41,18.27c.18,1.35,1.05,2.01,2.39,1.84l3.85-.51,1.36,10.29-10.96,1.44c-4.52.6-6.58-1.68-6.96-4.56-.17-1.25-.18-2.13-.18-2.13l-.19.02s-2.61,9.15-13.67,10.61c-8.75,1.15-17.46-3.28-18.75-13.09-2.03-15.39,18.96-19.42,26.95-20.48ZM806.54,351.76c6.54-.86,10.24-8.39,9.46-14.36l-.15-1.15-2.12.28c-6.35.84-16.33,3.03-15.43,9.86.43,3.27,3.24,6.03,8.24,5.37Z"/>
    <path class="cls-4" d="M837.79,318.59c-.67-1.38-1.48-1.57-2.92-1.38l-1.35.18-1.37-10.39,8.37-1.1c4.04-.53,6.13.46,7.58,4.09l10.8,26.27c1.02,2.51,1.65,5.07,1.65,5.07l.19-.03s.04-2.65.47-5.34l4.82-33.22,10.77-1.42,13.36,30.82c1.11,2.49,1.74,5.05,1.74,5.05l.19-.03s-.05-2.63.28-5.32l3.53-28.15c.47-3.88,2.23-5.38,6.26-5.91l8.37-1.1,1.37,10.39-1.35.18c-1.44.19-2.08.57-2.46,2.09l-6.87,38.47-13.75,1.81-12.05-26.88c-1.11-2.5-1.85-5.14-1.85-5.14l-.19.03s-.13,2.76-.55,5.46l-4.58,29.07-13.85,1.83-16.6-35.38Z"/>
    <path class="cls-4" d="M924.07,328.94s7.2,6.39,15.57,5.29c3.75-.49,6.43-2.41,6-5.68-.91-6.92-26.77-3.42-28.86-19.29-1.29-9.81,6.96-15.49,17.15-16.84,6.64-.87,17.51-.06,18.56,7.92l.67,5.1-10.77,1.42-.32-2.4c-.3-2.31-3.92-3.01-6.61-2.65-4.33.57-7.11,2.5-6.73,5.39,1.01,7.69,26.87,2.72,29.03,19.07,1.22,9.23-6.2,16.08-16.87,17.49-13.46,1.77-21.54-6.06-21.54-6.06l4.72-8.74Z"/>
    <path class="cls-4" d="M963.21,282.88c-.19-1.44-1.05-2.02-2.39-1.84l-3.85.51-1.37-10.39,11.64-1.53c4.52-.6,6.68.2,7.27,4.72l4.08,30.97,3.65-.48c1.54-.2,3.52-.76,4.38-2.44l7.96-16.8,13.56-1.79-9.97,20.1c-1.71,3.36-3.15,4.33-3.15,4.33l.03.19s1.82.45,3.97,3.39l6.97,9.84c.96,1.34,1.97,1.6,4.28,1.29l3.27-.43,1.36,10.29-9.04,1.19c-4.14.54-5.86.09-8.25-3.22l-10.2-14.31c-1.19-1.6-3.22-1.43-4.76-1.23l-2.69.35,2.83,21.45-12.21,1.61-7.35-55.78Z"/>
    <path class="cls-4" d="M1019.69,295.01c-.19-1.44-1.05-2.02-2.39-1.84l-3.85.51-1.37-10.39,11.64-1.53c4.52-.6,6.71,1.17,7.3,5.69l3.97,30.1c.18,1.35,1.05,2.01,2.39,1.84l3.85-.51,1.36,10.29-11.64,1.53c-4.52.6-6.7-1.07-7.31-5.69l-3.95-30ZM1016.09,263.2l10.58-1.39,1.48,11.25-10.58,1.39-1.48-11.25Z"/>
    <path class="cls-4" d="M528.49,506.2l24.95-47.51c2.28-4.21,4.38-6.84,4.38-6.84l-.03-.19s-1.99.46-5.17.88l-16.54,2.18c-1.35.18-2.01,1.05-1.84,2.4l.54,4.13-11.44,1.51-1.37-10.39c-.6-4.52,1.06-6.79,5.68-7.4l44.33-5.84,1.04,7.89-24.94,47.61c-2.27,4.31-4.38,6.84-4.38,6.84l.03.19s1.99-.46,5.17-.88l18.66-2.46c1.35-.18,2.01-1.05,1.84-2.39l-.54-4.13,11.35-1.5,1.37,10.39c.61,4.62-1.06,6.79-5.68,7.4l-46.35,6.11-1.05-7.98Z"/>
    <path class="cls-4" d="M584.59,469.36c-.67-1.38-1.48-1.57-2.92-1.38l-1.35.18-1.37-10.39,8.37-1.1c4.04-.53,6.13.46,7.58,4.09l10.8,26.27c1.02,2.51,1.65,5.07,1.65,5.07l.19-.03s.04-2.65.47-5.34l4.82-33.22,10.77-1.42,13.36,30.82c1.11,2.49,1.74,5.05,1.74,5.05l.19-.03s-.05-2.63.28-5.32l3.53-28.15c.47-3.88,2.23-5.38,6.26-5.91l8.37-1.1,1.37,10.39-1.35.18c-1.44.19-2.08.57-2.46,2.09l-6.87,38.47-13.75,1.81-12.05-26.88c-1.11-2.5-1.85-5.14-1.85-5.14l-.19.03s-.13,2.76-.55,5.45l-4.58,29.08-13.85,1.82-16.6-35.38Z"/>
    <path class="cls-4" d="M668.31,458.71c-.19-1.44-1.05-2.01-2.39-1.84l-3.85.51-1.37-10.39,11.64-1.53c4.52-.6,6.71,1.17,7.3,5.69l3.97,30.1c.18,1.35,1.05,2.01,2.39,1.84l3.85-.51,1.36,10.29-11.64,1.53c-4.52.6-6.7-1.08-7.3-5.69l-3.95-30.01ZM664.7,426.9l10.58-1.39,1.48,11.25-10.58,1.39-1.48-11.25Z"/>
    <path class="cls-4" d="M721.96,457.52l1.35-.18-.05-.38c-.93-7.02-4.06-9.25-10.31-8.43-2.21.29-6.46,1.44-6.11,4.13l.34,2.6-11.35,1.5-.68-5.19c-1.19-9.04,11.56-11.8,16.65-12.47,16.35-2.15,22.28,5.77,23.73,16.73l2.41,18.27c.18,1.35,1.05,2.01,2.39,1.84l3.85-.51,1.36,10.29c-1.62,1.78-4.76,5.42-4.4,8.21.41,3.08,5.17,2.84,5.17,2.84l-1.69,9.42s-11.97.5-13.04-7.67c-.65-4.9,2.46-8.84,4.95-11.41l-.03-.19-2.4.32c-4.33.57-6.25-2.11-6.54-4.32l-.06-.48c-.14-1.06-.06-1.95-.06-1.95l-.19.03s-2.42,9.12-13.86,10.63c-8.94,1.18-17.3-3.59-18.56-13.11-2.04-15.48,18.96-19.43,27.14-20.5ZM715.29,481.19c6.54-.86,10.24-8.39,9.46-14.36l-.15-1.15-2.12.28c-6.35.84-16.32,3.13-15.43,9.86.43,3.27,3.24,6.03,8.24,5.37Z"/>
    <path class="cls-4" d="M749.1,478.6l18.96-30.58c1.84-3.08,3.54-5.06,3.54-5.06l-.03-.19s-1.42.38-4.5.79l-8.85,1.17c-1.35.18-2.01,1.05-1.84,2.39l.37,2.79-11.06,1.46-1.15-8.75c-.59-4.52,1.06-6.79,5.68-7.4l35.97-4.74.87,6.63-18.96,30.58c-1.86,2.98-3.54,5.07-3.54,5.07l.03.19s1.4-.48,4.58-.9l10.77-1.42c1.35-.18,2.03-.95,1.84-2.4l-.35-2.69,11.06-1.46,1.14,8.66c.61,4.62-1.06,6.79-5.58,7.39l-38.08,5.02-.86-6.54Z"/>
    <path class="cls-4" d="M816.91,425.24c14.04-1.85,23.09,7.43,24.8,20.41.19,1.44.31,4.56.31,4.56l-33.85,4.46c2.1,8.53,9.04,12.21,16.45,11.23,7.89-1.04,13.03-7.29,13.03-7.29l6.21,7.79s-6.53,8.39-18.74,10c-16.25,2.14-27.9-8.26-29.73-22.21-1.99-15.1,6.81-27.02,21.52-28.96ZM828.69,443.35c-.97-5.84-5.54-9.35-10.54-8.69-6.25.82-10.18,5.16-10.71,11.49l21.25-2.8Z"/>
    <path class="cls-4" d="M849.36,415.29c-.19-1.44-1.05-2.01-2.4-1.84l-3.85.51-1.37-10.39,11.64-1.53c4.52-.6,6.68.2,7.27,4.72l4.08,30.97,3.65-.48c1.54-.2,3.52-.76,4.38-2.44l7.96-16.8,13.56-1.79-9.97,20.1c-1.71,3.36-3.15,4.33-3.15,4.33l.03.19s1.82.45,3.97,3.39l6.97,9.84c.96,1.34,1.97,1.6,4.28,1.29l3.27-.43,1.36,10.29-9.04,1.19c-4.14.54-5.86.09-8.25-3.22l-10.2-14.31c-1.19-1.6-3.22-1.43-4.76-1.23l-2.69.35,2.83,21.45-12.21,1.61-7.35-55.78Z"/>
    <path class="cls-4" d="M929.7,402.84l-6.25.82-1.41-10.67,27.79-3.66c21.06-2.78,36.46,7.91,39.3,29.46,2.84,21.54-9.24,36.05-30.3,38.82l-15,1.98c-4.62.61-6.79-1.06-7.4-5.68l-6.73-51.07ZM950.6,447.84l6.16-.81c13.66-1.8,21.33-11.13,19.3-26.51-2-15.2-12.02-22.19-25.49-20.42l-8.27,1.09,5.91,44.81c.18,1.35,1.05,2.01,2.39,1.84Z"/>
    <path class="cls-4" d="M1000.37,414.96c-.19-1.44-1.05-2.01-2.39-1.84l-3.85.51-1.37-10.39,11.16-1.47c4.33-.57,6.78.97,7.32,5.1l.38,2.89c.24,1.83.21,3.1.21,3.1l.19-.03c1.29-7.31,6.42-13.66,13.92-14.65,1.06-.14,2.24-.1,2.24-.1l1.58,12.02s-1.28-.03-3.01.2c-5.19.68-10.76,4.45-12.01,12.05-.36,2.49-.39,5.24,0,8.12l2.56,19.43-12.12,1.6-4.82-36.54Z"/>
    <path class="cls-4" d="M1040.38,409.69c-.19-1.44-1.05-2.01-2.39-1.84l-3.85.51-1.37-10.39,11.64-1.53c4.52-.6,6.71,1.17,7.29,5.59l2.98,22.6c.79,5.96,2.86,9.8,8.92,9,8.85-1.17,12.73-9.6,11.57-18.35l-2.97-22.5,12.21-1.61,4.83,36.64c.18,1.35,1.05,2.01,2.39,1.84l3.85-.51,1.36,10.29-11.25,1.48c-4.23.56-6.71-1.17-7.17-4.63l-.18-1.35c-.15-1.15-.2-2.22-.2-2.22l-.19.03c-1.64,5.4-7.12,11.31-15.58,12.42-10.48,1.38-17.62-3.06-19.38-16.43l-2.51-19.04Z"/>
    <path class="cls-4" d="M1100.49,432.29l18.96-30.58c1.84-3.08,3.54-5.07,3.54-5.07l-.03-.19s-1.42.38-4.49.79l-8.85,1.17c-1.35.18-2.01,1.05-1.84,2.39l.37,2.79-11.06,1.46-1.15-8.75c-.6-4.52,1.06-6.79,5.68-7.4l35.97-4.74.87,6.63-18.96,30.58c-1.86,2.98-3.54,5.07-3.54,5.07l.03.19s1.4-.48,4.58-.9l10.77-1.42c1.35-.18,2.03-.95,1.84-2.4l-.35-2.69,11.06-1.46,1.14,8.66c.61,4.62-1.06,6.79-5.58,7.39l-38.08,5.02-.86-6.54ZM1109.78,368.35l10.58-1.39,1.47,11.16-10.58,1.39-1.47-11.16Z"/>
    <path class="cls-4" d="M1159.59,441.24c3.37-.44,6.08-2.86,7.25-7.32l1.14-3.96-21.2-34.68c-.77-1.37-1.48-1.57-2.82-1.39l-1.44.19-1.37-10.39,8.08-1.06c3.46-.46,5.36.57,7.05,3.77l12.85,23.26c1.29,2.37,2.59,6.31,2.59,6.31l.19-.03s.24-4.14.77-6.75l5.13-25.63c.71-3.52,2.57-5.03,5.93-5.48l8.27-1.09,1.37,10.39-1.44.19c-1.44.19-2.17.58-2.56,2.1l-11.76,46.65c-2.3,9.3-8.7,14.16-16.01,15.12-7.69,1.01-13.06-3.37-13.06-3.37l3.57-9.28s3.42,2.97,7.46,2.44Z"/>
    <path class="cls-4" d="M1202.8,388.28c-.19-1.44-1.05-2.01-2.39-1.84l-3.85.51-1.37-10.39,11.25-1.48c4.33-.57,6.71,1.17,7.17,4.63l.19,1.44c.14,1.06.09,2.14.09,2.14l.19-.03c1.57-4.42,6.06-11.17,15.97-12.48,10.87-1.43,17.87,3.42,19.58,16.4l2.52,19.14c.18,1.35,1.05,2.01,2.39,1.84l3.85-.51,1.36,10.29-11.64,1.53c-4.62.61-6.79-1.06-7.4-5.68l-2.96-22.5c-.79-5.96-2.86-9.8-9.01-8.99-6.54.86-10.9,5.64-11.86,11.74-.41,2.11-.4,4.36-.1,6.67l2.96,22.5-12.12,1.6-4.82-36.54Z"/>
    <path class="cls-4" d="M562.4,625.42l-4.45,21.92-8.27,1.09,1.76-21.56,10.96-1.44ZM566.82,624.84l10.87-1.43-4.35,21.9-8.27,1.09,1.76-21.56Z"/>
    <path class="cls-4" d="M591.15,615.67s8.08,7.15,17.6,5.9c5.19-.68,9.44-4.08,8.75-9.37-1.53-11.64-33.53-6.44-36.33-27.7-1.46-11.06,7.08-20.5,20.26-22.24,7.98-1.05,20.79,1.08,22.07,10.79l.84,6.35-11.35,1.5-.41-3.08c-.42-3.17-5.22-4.69-9.74-4.1-5.77.76-9.61,4.3-9.04,8.63,1.53,11.64,33.35,5.1,36.3,27.5,1.43,10.87-5.72,21.2-20.05,23.09-15.1,1.99-24.86-7.49-24.86-7.49l5.95-9.79Z"/>
    <path class="cls-4" d="M639.15,587.92l-6.35.84-1.28-9.71,6.64-.87-1.76-13.37,11.92-1.57,1.76,13.37,11.16-1.47,1.28,9.71-11.16,1.47,2.61,19.81c1.06,8.08,7.56,8.4,10.93,7.95,1.35-.18,2.19-.48,2.19-.48l1.41,10.68s-1.5.49-3.71.78c-6.83.9-20.65.67-22.82-15.78l-2.81-21.35Z"/>
    <path class="cls-4" d="M699.71,588.64l1.54-.2-.05-.38c-.93-7.02-4.06-9.25-10.31-8.43-2.21.29-6.46,1.44-6.11,4.13l.34,2.6-11.35,1.5-.68-5.19c-1.2-9.14,11.56-11.79,16.65-12.47,16.35-2.15,22.29,5.77,23.73,16.73l2.41,18.27c.18,1.35,1.05,2.01,2.39,1.84l3.85-.51,1.36,10.29-10.96,1.45c-4.52.59-6.58-1.68-6.96-4.56-.17-1.25-.18-2.13-.18-2.13l-.19.03s-2.61,9.15-13.67,10.61c-8.75,1.15-17.46-3.28-18.75-13.08-2.03-15.39,18.96-19.43,26.95-20.48ZM693.24,612.29c6.54-.86,10.24-8.39,9.46-14.36l-.15-1.15-2.12.28c-6.35.84-16.33,3.03-15.43,9.86.43,3.27,3.24,6.03,8.24,5.37Z"/>
    <path class="cls-4" d="M728.47,578.98c-.19-1.44-1.05-2.01-2.39-1.84l-3.85.51-1.37-10.39,11.25-1.48c4.33-.57,6.71,1.17,7.17,4.63l.19,1.44c.14,1.06.09,2.14.09,2.14l.19-.03c1.57-4.42,6.06-11.17,15.97-12.47,10.87-1.43,17.87,3.42,19.58,16.4l2.52,19.14c.18,1.35,1.05,2.01,2.39,1.84l3.85-.51,1.36,10.29-11.64,1.53c-4.62.61-6.79-1.06-7.4-5.68l-2.96-22.5c-.79-5.96-2.86-9.8-9.01-8.99-6.54.86-10.9,5.64-11.86,11.74-.41,2.11-.4,4.36-.1,6.67l2.96,22.5-12.12,1.6-4.82-36.54Z"/>
    <path class="cls-4" d="M790.7,570.78c-.19-1.44-1.05-2.01-2.39-1.84l-3.85.51-1.37-10.39,11.64-1.53c4.52-.6,6.71,1.17,7.31,5.69l3.97,30.1c.18,1.35,1.05,2.01,2.39,1.84l3.85-.51,1.36,10.29-11.64,1.53c-4.52.6-6.7-1.08-7.31-5.69l-3.95-30ZM787.09,538.97l10.58-1.39,1.48,11.25-10.58,1.39-1.48-11.25Z"/>
    <path class="cls-4" d="M839.19,550.5c6.35-.84,18.13.25,19.25,8.71l.76,5.77-10.77,1.42-.35-2.69c-.35-2.69-4.55-3.31-7.53-2.92-8.46,1.12-13.67,8.36-12.51,17.2,1.32,10,9.39,14.12,17.28,13.08,8.37-1.1,13.65-8.55,13.65-8.55l6.21,7.79s-6.14,9.81-19.51,11.57c-16.16,2.13-28.05-7.95-29.93-22.18-1.83-13.85,6.62-26.99,23.45-29.21Z"/>
    <path class="cls-4" d="M895.89,562.79l1.54-.2-.05-.38c-.92-7.02-4.06-9.25-10.31-8.43-2.21.29-6.46,1.44-6.11,4.13l.34,2.6-11.35,1.5-.68-5.19c-1.2-9.14,11.56-11.79,16.65-12.47,16.35-2.15,22.29,5.77,23.73,16.73l2.41,18.27c.18,1.35,1.05,2.01,2.39,1.84l3.85-.51,1.36,10.29-10.96,1.44c-4.52.6-6.58-1.68-6.96-4.56-.17-1.25-.18-2.13-.18-2.13l-.19.03s-2.61,9.15-13.67,10.61c-8.75,1.15-17.46-3.28-18.75-13.08-2.03-15.39,18.96-19.43,26.95-20.48ZM889.42,586.44c6.54-.86,10.24-8.39,9.46-14.36l-.15-1.15-2.12.28c-6.35.84-16.33,3.03-15.43,9.86.43,3.27,3.24,6.03,8.24,5.37Z"/>
    <path class="cls-4" d="M917.33,520.54l10.96-1.44-4.44,22.01-8.27,1.09,1.74-21.66ZM932.72,518.51l10.87-1.43-4.34,22-8.27,1.09,1.75-21.66Z"/>
  </g>
  <g>
    <g>
      <path class="cls-4" d="M478.07,677.05l-41.35-391.4c-38.01.2-395.89,41.35-395.89,41.35-5.95.62-11.73,2.4-17,5.24-5.26,2.82-9.91,6.66-13.69,11.28-7.59,9.27-11.15,21.19-9.9,33.1l36.69,346.54c1.31,11.9,7.31,22.78,16.68,30.23,9.43,7.51,21.43,11.01,33.42,9.75l350.6-36.63c11.95-1.29,22.91-7.23,30.53-16.53,7.56-9.21,11.13-21.06,9.92-32.92Z"/>
      <g>
        <path class="cls-2" d="M386.75,486.04c2.4,6.05,21.56,56.62,14.19,202.72l-33.87,4-11.64,1.37-14.66,1.73-52.31,6.17-15.13,1.79-14,1.65-47.58,5.61-22.27,2.63-10.16,1.2-40.83,4.82c-50.95-84.16-54.81-108.81-56.14-113.32-1.53-5.19,17.37,14.46,40.33,26.62,25.56,13.53,47.85,16.08,61.86,18.48,52.58,9,104.9-18.55,117.24-26.14,29.7-18.26,48.01-43.63,56.72-57.18,22.34-34.76,26.58-86.35,28.24-82.14Z"/>
        <g>
          <path class="cls-2" d="M168.73,679.31c-4.63-1.73-21.27-46.51-23.21-54.52-14.53-59.89-9.6-90.07-5.88-114.11,9.2-59.46,38.42-94.41,51.95-113.25,26.11-36.35,89.61-72.48,103.73-75.47.81-.17-10.67,27.1-12.88,35.43-8.97,33.9-12.4,74.61-9.07,102.38,1.74,14.52,7.25,43.64,17.86,70.27,9.33,23.41,20.82,44.93,29.59,55.32,6.66,7.88,13.28,17.57,20.86,25.53,16.16,16.99,32,30.18,30.07,28.62-20.49-16.54-85.59-28.62-123.7-14.56-2.05.76-36.35,13.13-49.53,24.9-3.69,3.3-7.69,6.51-15.18,13.83-6.37,6.23-13.6,16.01-14.62,15.62Z"/>
          <path class="cls-3" d="M213.43,542.95c-3.2-6.13-5.67-12.79-9.74-18.28-8.76-11.82-7.91-23.75-2.23-36.18,2.53-5.55,5.25-11.01,8.37-17.54,9.15,10.03,17.37,19.57,20.38,31.55,1.52,6.03-1.37,13.31-2.83,19.9-1.46,6.56-3.64,12.95-4.23,19.77,2.63-7.35,4.95-14.83,8.03-21.98,1.59-3.68,4.26-7.02,6.93-10.08,4.12-4.73,9.07-7.6,15.78-5.21,6.63,2.36,11.14,6.78,11.79,13.75.49,5.21-.51,10.56-1.82,16.22-5.94-5.34-11.37-11.8-19.24-7.91-4.78,2.37-8.03,7.84-12.25,12.21,4.71,4.73,8.95,8.26,1.18,11.83-.84.38-.12,5.91,1.17,8.39.61,1.18,4.38,1.4,6.47.92,1.7-.39,3.01-2.45,5.52-4.68.52,4.84,1.96,8.87,1,12.21-.85,2.94-4.02,6.5-6.83,7.23-2.77.72-7.51-.83-9.35-3.07-2.92-3.55-4.22-8.46-6.03-12.87-.81-1.98-1.21-4.13-1.8-6.2-.74.25-1.48.49-2.22.74,1.77,5.24,3.21,10.62,5.39,15.69,3.67,8.56,2.99,12.26-4.28,18.37-7.81-3.88-9.72-7.66-8.42-15.69.99-6.16,1.63-12.38,2.42-18.57-.83-.11-1.66-.22-2.49-.33-.21,1.55-.44,3.1-.64,4.65-.63,4.73-.87,9.55-1.97,14.17-1.24,5.22-4.75,8.45-10.48,7.73-5.23-.66-7.93-4.15-8.64-9.23-.37-2.64-.58-5.3-1-9.2,2.43,1.2,3.62,1.63,4.63,2.32,2.9,2.01,6.3,3.48,8.06-.53,1.45-3.3,3.56-7.64-2.56-10.09-1.51-.61-1.44-5.16-1.16-8.15-7.57-16.15-17.07-16.39-28.46-.98-6.92-5.51-8.51-18.53-3.15-25.78,5.77-7.8,14.71-9.55,22.7-2.29,6.76,6.14,11.56,14.46,17.06,21.94,1.29,1.75,1.92,3.99,2.85,6,.71-.26,1.42-.51,2.13-.77Z"/>
        </g>
      </g>
    </g>
    <g>
      <line class="cls-1" x1="114.36" y1="723.41" x2="409.33" y2="687.81"/>
      <path class="cls-4" d="M127.21,715.48c3.8-.06,6.66-.68,8.56-1.22,1.18-.34,2.91-.92,11.6-5.85,3.21-1.82,4.81-2.73,7.01-4.08,3.19-1.96,4.25-2.78,8.62-5.7,5.45-3.64,8.18-5.46,10.87-6.98,4.79-2.7,7.18-4.05,10.79-5.14,2.12-.64,8.61-2.41,16.32-1.54,7.36.83,13.42,3.81,12.87,4.75-.33.57-2.79-.1-6.8.81-1.35.31-6.35,1.44-8.74,4.7-1.37,1.87-2.1,4.73-.1,6.71.7.69,2.33,1.86,9.87,2.27,5.02.27,10.56.58,17.3-.85,6.03-1.27,12.04-4.79,23.8-11.77,7.69-4.56,12.06-6.98,20.79-11.81,1.6-.89,5.11-2.8,10.29-4.27,1.85-.53,5.01-1.42,8.8-1.66,9.32-.58,17.63,3.13,17.03,4.46-.34.75-3.3.19-8.48,1.82-2.61.82-5.56,1.76-7.06,3.68-2.15,2.76-.54,6.57,2.8,8.39,1.7.92,3.72,1.26,11.23,1.09,8.96-.19,13.44-.29,16.98-1.01,7.36-1.5,12.05-4.25,20.78-9.38,4.73-2.77,3.68-2.54,14.2-9.2,9.05-5.73,11.9-7.22,15.78-8.58,2.8-.98,7.56-2.61,13.76-2.86,9.32-.38,17.4,2.54,16.96,3.86-.35,1.08-6.05.19-11.62,3.21-1.21.66-5,2.71-5.32,5.71-.3,2.77,2.49,5.15,5.52,6.04,2.36.69,3.7.14,9.34.31,3.15.09,5.67.36,7.27.55"/>
    </g>
  </g>
</svg>