<?xml version="1.0" encoding="UTF-8" standalone="no"?>
<!-- Created with Inkscape (http://www.inkscape.org/) -->

<svg
   width="140.00104mm"
   height="140.00101mm"
   viewBox="0 0 140.00104 140.00101"
   version="1.1"
   id="svg1"
   inkscape:version="1.3 (0e150ed6c4, 2023-07-21)"
   sodipodi:docname="ikona-fioletowa.svg"
   inkscape:export-filename="ikona-fioletowa.png"
   inkscape:export-xdpi="195.94141"
   inkscape:export-ydpi="195.94141"
   xmlns:inkscape="http://www.inkscape.org/namespaces/inkscape"
   xmlns:sodipodi="http://sodipodi.sourceforge.net/DTD/sodipodi-0.dtd"
   xmlns="http://www.w3.org/2000/svg"
   xmlns:svg="http://www.w3.org/2000/svg">
  <sodipodi:namedview
     id="namedview1"
     pagecolor="#ffffff"
     bordercolor="#000000"
     borderopacity="0.25"
     inkscape:showpageshadow="2"
     inkscape:pageopacity="0.0"
     inkscape:pagecheckerboard="0"
     inkscape:deskcolor="#d1d1d1"
     inkscape:document-units="mm"
     inkscape:zoom="0.45254832"
     inkscape:cx="414.3204"
     inkscape:cy="511.54759"
     inkscape:window-width="1920"
     inkscape:window-height="1009"
     inkscape:window-x="1912"
     inkscape:window-y="-8"
     inkscape:window-maximized="1"
     inkscape:current-layer="layer1" />
  <defs
     id="defs1">
    <clipPath
       clipPathUnits="userSpaceOnUse"
       id="clipPath6-5-9-0-9-6">
      <path
         d="M 0,723.81 H 1637 V 0 H 0 Z"
         transform="translate(-535.52872,-357.65841)"
         id="path6-7-5-4-1-7" />
    </clipPath>
  </defs>
  <g
     inkscape:label="Layer 1"
     inkscape:groupmode="layer"
     id="layer1"
     transform="translate(3022.6397,1562.8035)">
    <g
       id="g18"
       inkscape:export-filename="ikona-fioletowa.svg"
       inkscape:export-xdpi="150"
       inkscape:export-ydpi="150">
      <rect
         style="fill:#382259;fill-opacity:1;stroke:none;stroke-width:8.53739;stroke-linejoin:round;stroke-opacity:1;paint-order:fill markers stroke"
         id="rect17"
         width="140.00104"
         height="140.00102"
         x="-3022.6396"
         y="-1562.8035" />
      <g
         id="g13">
        <path
           id="path5-5-6-6-7-55"
           clip-path="url(#clipPath6-5-9-0-9-6)"
           style="fill:#ffffff;fill-opacity:1;fill-rule:nonzero;stroke:none;stroke-width:9;stroke-linecap:butt;stroke-linejoin:miter;stroke-miterlimit:10;stroke-dasharray:none;stroke-opacity:1"
           d="m -101.09973,159.41381 c -1.5073,0.01 -3.29319,-0.44623 -5.28847,-1.44489 -24.57717,-12.30121 -68.23979,-40.75504 -88.77748,-69.341401 -13.53598,-18.839964 -42.74975,-53.788819 -51.95173,-113.251699 -3.721,-24.040952 -8.65073,-54.223702 5.88125,-114.11559 0.71677,-2.95451 3.65215,-11.23563 7.02644,-20.18689 -6.59229,1.87843 -13.638,4.30541 -21.0592,7.64175 -4.93312,2.21778 -12.68778,6.33941 -17.27476,9.20368 -9.97304,6.22749 -18.64647,13.1759 -24.42905,17.69684 -3.6742,2.87257 -6.42949,-0.26165 -4.73132,-5.39618 4.2854,-12.95729 15.63312,-40.56568 48.39617,-95.51219 2.77047,-4.64635 9.20878,-7.01873 14.38014,-5.43175 82.82411,25.41691 163.109567,26.98494 243.3256082,27.89331 5.4092952,0.0613 10.0997718,4.48501 10.4252948,9.88481 C 21.231171,-86.649727 9.6209939,-29.79289 3.43478,-9.1457821 1.8862178,-3.9773006 -0.97975142,-4.2746167 -2.3004496,-9.5202583 -6.074008,-24.508342 -14.113556,-53.916146 -23.578569,-73.534187 c -2.349578,-4.86995 -6.957444,-12.347277 -9.950265,-16.853382 -5.982082,-9.00685 -12.189816,-17.001711 -19.890545,-24.678021 -4.300524,5.394 -8.411429,10.90718 -12.506829,15.756809 -8.775982,10.38998 -20.259245,31.912026 -29.590225,55.32398 -10.612977,26.627946 -16.117867,55.746098 -17.860847,70.271068 -3.333,27.774946 0.0979,68.485045 9.06586,102.383983 1.0726,4.05336 4.34057,12.59268 7.321374,20.27147 2.41942,6.23264 0.412221,10.44233 -4.109684,10.47209 z M -176.9261,15.090525 c 9.153,-10.0269902 17.36447,-19.5700973 20.38147,-31.548085 1.517,-6.026994 -1.3671,-13.313746 -2.8341,-19.901739 -1.46,-6.555994 -3.63798,-12.95147 -4.22898,-19.765463 2.632,7.346993 4.94615,14.829921 8.02515,21.983914 1.58599,3.682996 4.25775,7.017613 6.92875,10.08361 4.12199,4.733995 9.07307,7.600185 15.77607,5.213187 6.63299,-2.361998 11.13571,-6.782218 11.78471,-13.752212 0.486,-5.211994 -0.50681,-10.56224 -1.82281,-16.216234 -5.94099,5.335994 -11.37154,11.80507 -19.23853,7.906074 -4.782,-2.368998 -8.02717,-7.836141 -12.25316,-12.212136 4.71099,-4.728996 8.95117,-8.262856 1.18217,-11.828853 -0.837,-0.383999 -0.1178,-5.916108 1.16519,-8.393105 0.611,-1.178999 4.38319,-1.397278 6.46619,-0.922278 1.697,0.385999 3.01112,2.451814 5.51512,4.682812 0.517,-4.843995 1.9605,-8.873724 0.9995,-12.210721 -0.84899,-2.943997 -4.02011,-6.502576 -6.8311,-7.233575 -2.768,-0.720999 -7.51277,0.833823 -9.34677,3.06682 -2.91599,3.551997 -4.21721,8.461742 -6.03121,12.867737 -0.814,1.977998 -1.21453,4.126044 -1.80253,6.197042 -0.74099,-0.247 -1.48316,-0.493524 -2.22315,-0.740524 1.77099,-5.238995 3.21539,-10.617537 5.38839,-15.684532 3.669,-8.557991 2.99447,-12.259314 -4.28252,-18.366304 -7.80999,3.880992 -9.71751,7.660063 -8.42251,15.686055 0.994,6.158994 1.62497,12.376049 2.41797,18.568043 -0.829,0.108 -1.65903,0.216501 -2.48903,0.325501 -0.215,-1.548998 -0.43685,-3.095279 -0.64185,-4.645277 -0.626,-4.729996 -0.86822,-9.551558 -1.96722,-14.168553 -1.243,-5.217995 -4.75274,-8.451306 -10.48173,-7.733307 -5.23,0.656 -7.92589,4.149462 -8.63489,9.224457 -0.37,2.638997 -0.58082,5.300756 -0.99682,9.196752 2.426,-1.200999 3.61949,-1.623998 4.62648,-2.320997 2.902,-2.005998 6.29819,-3.479167 8.05519,0.526828 1.449,3.302997 3.56537,7.635999 -2.55762,10.089997 -1.511,0.604999 -1.44104,5.15633 -1.16204,8.145327 -7.56499,16.154984 -17.0675,16.388583 -28.46249,0.983598 -6.91699,5.510995 -8.50726,18.531084 -3.14827,25.782077 5.766,7.799992 14.70765,9.546614 22.69864,2.289621 6.759,-6.138994 11.55552,-14.46317 17.05752,-21.941163 1.289,-1.750998 1.9198,-3.987576 2.8538,-6.000574 0.711,0.257 1.42468,0.515899 2.13568,0.772898 -3.196,6.129994 -5.67307,12.792219 -9.73706,18.279213 -8.75799,11.821988 -7.90966,23.751773 -2.23367,36.1797609 2.533,5.5479945 5.24908,11.0103144 8.37207,17.5343081 z m 79.682587,-147.811715 c 6.855152,-0.023 13.789782,-0.47833 20.624736,-1.22858 -0.0364,-0.0246 -0.06755,-0.0482 -0.104005,-0.0728 -4.484511,-3.02475 -11.981397,-7.58908 -16.776635,-10.09076 -18.523043,-9.66349 -57.438613,-26.03348 -98.112853,-22.66293 1.12704,0.98012 2.37431,2.06577 3.38916,2.97235 13.17998,11.76898 47.47912,24.14142 49.53212,24.89942 11.90779,4.39312 26.45232,6.23362 41.447477,6.18327 z"
           transform="matrix(0.23146356,0.00294921,0.00294921,-0.23146356,-2920.2769,-1504.7965)" />
      </g>
    </g>
  </g>
</svg>
