<?xml version="1.0" encoding="UTF-8" standalone="no"?>
<svg
   version="1.1"
   width="512"
   height="512"
   id="svg18"
   viewBox="0 0 512 512"
   xmlns="http://www.w3.org/2000/svg"
   xmlns:svg="http://www.w3.org/2000/svg">
  <defs
     id="defs22" />
  <path
     id="path14611-6-0"
     style="fill:#000000;fill-opacity:1;stroke:none;stroke-width:9.90942;stroke-linecap:round;stroke-linejoin:round;stroke-miterlimit:4;stroke-dasharray:none;stroke-opacity:1;paint-order:fill markers stroke"
     d="m 264.73709,68.683468 c -5.60152,9.140018 -11.78098,9.13556 -24.47641,5.894789 -3.53634,-0.902761 -7.316,4.497958 -6.56335,7.799647 6.46965,-5.217837 15.0648,5.063643 27.99547,6.999334 0.33158,0.09267 0.3152,1.728425 0.26935,3.063663 -1.97945,-0.08085 -3.96313,-0.145335 -5.96262,-0.145335 -15.1774,0.06466 -30.20923,2.285716 -44.6974,6.468378 15.71359,3.960436 39.89369,8.419226 50.04768,18.155256 -0.13339,6.42955 -0.21704,10.48696 -0.35269,17.02552 -26.73899,-15.70837 -79.68897,-19.46938 -89.33084,-19.31213 -9.64177,0.15726 -10.21039,1.35883 -10.45059,4.57709 -0.2402,3.21825 7.48244,3.74147 12.21593,7.22799 -29.26959,26.47851 -47.30481,58.03221 -55.44058,83.08707 -6.82267,21.01005 -10.07971,45.28595 -10.94279,73.00275 -6.56956,-0.40102 -8.240583,1.77443 -9.84986,4.83483 -0.138704,3.49158 1.040741,5.06751 4.04421,6.16801 h -0.4922 c 61.39964,0 101.09725,6.33029 152.51682,14.60326 -0.94849,4.20195 -1.2977,8.75806 -1.94556,13.13636 H 106.06772 a 163.70571,163.70537 0 0 0 14.43858,26.20681 h 270.98644 a 163.70571,163.70537 0 0 0 14.44053,-26.20681 H 274.3951 c -0.90552,-17.83136 -0.69649,-8.58812 -2.72843,-53.43291 14.08904,-3.85062 27.27401,-4.82675 39.77925,-3.5423 0.27481,0.0272 0.54577,0.0636 0.81969,0.093 1.26517,0.14037 2.5254,0.29803 3.77678,0.48445 0.62859,0.0927 1.25373,0.19584 1.87772,0.30035 1.01475,0.17046 2.02474,0.35622 3.03074,0.55616 0.54186,0.10849 1.0853,0.21399 1.62388,0.33136 31.19081,6.71443 58.26163,27.38833 84.82351,52.24698 4.25065,-9.98161 12.307,-40.2408 12.307,-62.3061 0,-78.75511 -55.61986,-144.50012 -129.71663,-160.14952 -1.45577,-0.301965 -2.92127,-0.570556 -4.38719,-0.835192 -1.00236,-0.183173 -2.00271,-0.373881 -3.01135,-0.538708 -1.75961,-0.285363 -3.5295,-0.52885 -5.30183,-0.759619 -0.88695,-0.115265 -1.77122,-0.236168 -2.66254,-0.337176 -1.59128,-0.181761 -3.19019,-0.324155 -4.79025,-0.461197 -0.68979,-0.05778 -1.38758,-0.08659 -2.07926,-0.137584 -0.15931,-5.567153 -0.83921,-23.643347 -3.0191,-24.098486 z m 142.66115,249.623582 -1.6762,-0.62398 c 0.21112,0.15234 0.41423,0.31551 0.62592,0.46702 z M 268.70376,123.81196 c 11.97804,11.54761 17.93369,30.53585 17.25615,46.03051 -1.06696,24.40262 -6.84764,28.9087 -14.31648,42.4262 -1.01449,-29.11167 -1.92548,-59.34523 -2.93967,-88.45671 z m -140.8183,233.52045 a 163.70571,163.70537 0 0 0 128.11407,62.37391 163.70571,163.70537 0 0 0 128.11599,-62.37391 z" />
  <path
     style="color:#000000;fill:#000000;-inkscape-stroke:none;stroke:none;fill-opacity:1"
     d="m 56.003906,359.66016 c -6.025569,0 -10.699448,2.11835 -14.322265,4.10156 -3.622818,1.98321 -6.296051,3.63976 -8.552735,4.00586 l -5.412109,0.8789 2.52539,4.86719 C 73.999284,457.82533 160.99841,510.85138 255.98828,511.10352 H 256 h 0.01 c 94.9937,-0.25148 181.99797,-53.28108 225.7539,-137.59766 l 2.58203,-4.97656 -5.55273,-0.78125 c -3.16314,-0.4447 -6.33584,-2.16146 -10.36328,-4.10157 -4.02744,-1.9401 -8.96362,-3.98364 -15.22852,-3.98632 -6.66297,-0.003 -11.43277,2.50797 -15.5664,4.54687 -4.13363,2.0389 -7.72838,3.73242 -13.78516,3.73242 -4.32799,0 -7.82767,-1.67355 -11.79297,-3.73047 -3.9653,-2.05691 -8.41307,-4.61288 -14.11133,-4.54882 -6.60218,0.0742 -11.16401,2.585 -15.01562,4.53711 -3.85162,1.9521 -7.09314,3.50711 -13.11719,3.39257 h -0.0449 l -227.47071,0.78711 h -0.0195 c -6.93722,0.0928 -11.09199,-1.73857 -15.70898,-3.90625 -4.617,-2.16767 -9.7959,-4.81054 -17.04492,-4.81054 -6.59111,0 -11.299394,2.50549 -15.011721,4.57031 -3.712327,2.06482 -6.416514,3.63604 -10.748047,3.71094 -4.299534,0.0744 -7.857971,-1.58279 -12.132813,-3.66993 -4.274841,-2.08713 -9.254695,-4.61132 -15.626953,-4.61132 z m 342.031254,7.93554 c 3.18073,-0.0358 6.30117,1.55006 10.36523,3.65821 4.06406,2.10814 9.0537,4.62304 15.44922,4.62304 7.65538,0 13.03438,-2.44832 17.29687,-4.55078 4.2625,-2.10246 7.31248,-3.73059 12.05274,-3.72851 4.58558,0.002 8.05951,1.4045 11.78515,3.19921 2.28018,1.09841 4.67048,2.35126 7.3125,3.34961 C 429.19436,453.30375 346.40222,502.91887 256.00977,503.16602 165.5233,502.92583 82.648904,453.21751 39.578125,373.92187 c 2.134989,-0.99114 4.054987,-2.17849 5.916016,-3.19726 3.232698,-1.76965 6.277867,-3.12695 10.509765,-3.12695 4.267115,0 7.844762,1.70733 12.144531,3.80664 4.29977,2.0993 9.33562,4.58362 15.751954,4.47265 6.324606,-0.10935 10.822365,-2.67975 14.470703,-4.70898 3.648336,-2.02923 6.459466,-3.57031 11.152346,-3.57031 5.37981,0 8.89663,1.81662 13.67187,4.05859 4.77485,2.24179 10.70768,4.76919 19.18555,4.65625 7e-4,-10e-6 0.001,10e-6 0.002,0 l 227.2793,-0.78711 c 7.60071,0.14451 12.8195,-2.2025 16.85547,-4.24805 4.03597,-2.04554 6.78856,-3.62847 11.51758,-3.68164 z"
     id="path14" />
  <path
     style="color:#000000;fill:#000000;stroke-linecap:round;stroke-linejoin:round;-inkscape-stroke:none;paint-order:fill markers stroke;stroke:none;fill-opacity:1"
     d="M 256,0 C 114.67288,1.6882711e-7 1.6882713e-7,114.67288 0,256 0,397.32712 114.67288,512 256,512 397.32712,512 512,397.32712 512,256 512,114.67288 397.32712,0 256,0 Z m 0,9.7324219 C 392.06704,9.7324219 502.26758,119.93296 502.26758,256 502.26758,392.06704 392.06704,502.26758 256,502.26758 119.93296,502.26758 9.7324219,392.06704 9.7324219,256 9.732422,119.93296 119.93296,9.732422 256,9.7324219 Z"
     id="path7367" />
  <g
     aria-label="HARCERSKI OŚRODEK WODNY"
     id="text2264"
     style="font-size:43.4056px;line-height:1.25;font-family:'Work Sans';-inkscape-font-specification:'Work Sans';stroke-width:1.86423;stroke:none;fill:#000000;fill-opacity:1">
    <path
       d="m 37.816021,308.1059 -1.614663,-9.46419 10.717733,-1.82853 -1.764367,-10.34167 -10.717733,1.82853 -1.621792,-9.50599 30.628065,-5.22537 1.621791,9.50598 -12.389114,2.11367 1.764366,10.34168 12.389115,-2.11368 1.614663,9.4642 z"
       style="font-weight:900;font-family:Arial;-inkscape-font-specification:'Arial Heavy';stroke:none;fill:#000000;fill-opacity:1"
       id="path38739" />
    <path
       d="m 58.15277,247.95037 -0.140173,10.93528 5.109274,1.5704 -0.125776,9.81208 -30.918378,-12.07525 0.134196,-10.46905 31.21774,-11.27877 -0.128763,10.0452 z m -6.743798,1.92717 -11.212403,3.29 11.124659,3.55514 z"
       style="font-weight:900;font-family:Arial;-inkscape-font-specification:'Arial Heavy';stroke:none;fill:#000000;fill-opacity:1"
       id="path38741" />
    <path
       d="m 64.087822,233.22219 -30.528559,-5.7784 2.975916,-15.72242 q 0.827738,-4.37312 2.014935,-6.54273 1.187197,-2.16961 3.496017,-3.19939 2.287996,-1.03372 5.203411,-0.4819 2.540576,0.48088 4.188983,1.91455 1.627583,1.42973 2.414238,3.54154 0.50024,1.34577 0.581098,3.53969 0.88153,-1.58035 1.589628,-2.24443 0.473379,-0.44966 1.887274,-1.19585 1.417837,-0.76702 2.147283,-0.97408 l 9.71358,-2.88535 -2.018105,10.66208 -10.283198,3.27367 q -1.993036,0.615 -2.676369,1.26219 -0.901168,0.88638 -1.145548,2.1775 l -0.157664,0.83297 12.390513,2.34526 z m -16.365437,-12.91218 0.752848,-3.97746 q 0.12219,-0.64556 0.0565,-2.57776 -0.01005,-0.97257 -0.670184,-1.7015 -0.656196,-0.74974 -1.655767,-0.93894 -1.478532,-0.27986 -2.447231,0.50746 -0.9687,0.78732 -1.457459,3.36954 l -0.784381,4.14406 z"
       style="font-weight:900;font-family:Arial;-inkscape-font-specification:'Arial Heavy';stroke:none;fill:#000000;fill-opacity:1"
       id="path38743" />
    <path
       d="m 66.134252,177.17189 5.346363,-6.97721 q 3.013291,2.04115 4.592039,4.58368 1.578748,2.54252 1.752841,5.50709 0.181564,2.94474 -1.290409,6.85191 -1.785794,4.74017 -4.29003,7.23927 -2.516598,2.4718 -6.809347,3.34588 -4.29275,0.87408 -9.707254,-1.16576 -7.219339,-2.71979 -9.644757,-8.00465 -2.43778,-5.31217 0.207288,-12.33318 2.069728,-5.49383 5.47163,-7.79065 3.409374,-2.31664 8.58605,-2.11032 l -1.223609,8.59834 q -1.485745,-0.0841 -2.272433,0.14042 -1.315268,0.36513 -2.281559,1.24675 -0.96629,0.88162 -1.474383,2.23028 -1.150679,3.05434 0.695957,5.6072 1.361408,1.91708 5.268578,3.38905 4.839337,1.82316 7.197095,1.03544 2.337925,-0.7952 3.339165,-3.45286 0.971353,-2.57834 0.01667,-4.43279 -0.947215,-1.87429 -3.479892,-3.50789 z"
       style="font-weight:900;font-family:Arial;-inkscape-font-specification:'Arial Heavy';stroke:none;fill:#000000;fill-opacity:1"
       id="path38745" />
    <path
       d="m 56.388452,153.97042 12.970617,-22.22116 5.729178,3.34415 -8.119991,13.91111 4.264852,2.48942 7.53236,-12.90438 5.472922,3.19457 -7.53236,12.90438 5.28988,3.08774 8.355043,-14.3138 6.076957,3.54716 -13.20567,22.62384 z"
       style="font-weight:900;font-family:Arial;-inkscape-font-specification:'Arial Heavy';stroke:none;fill:#000000;fill-opacity:1"
       id="path38747" />
    <path
       d="m 99.512281,142.63025 -23.835148,-19.9316 10.264909,-12.27526 q 2.85514,-3.41431 4.949597,-4.72957 2.094456,-1.31525 4.612323,-1.08844 2.501608,0.21321 4.777818,2.11664 1.98355,1.6587 2.72358,3.71419 0.72377,2.04188 0.38077,4.26919 -0.21951,1.41886 -1.21875,3.37369 1.54025,-0.94986 2.48228,-1.18434 0.63256,-0.16174 2.23082,-0.12374 1.61187,0.0217 2.34968,0.19668 l 9.88742,2.21762 -6.96111,8.32442 -10.57407,-2.15638 q -2.039913,-0.43495 -2.95209,-0.20313 -1.218993,0.33441 -2.061939,1.34244 l -0.543836,0.65035 9.673885,8.08956 z m -7.991386,-19.25331 2.596818,-3.10539 q 0.421473,-0.50402 1.306336,-2.22296 0.465488,-0.854 0.244604,-1.81229 -0.207288,-0.97455 -0.987702,-1.62715 -1.154362,-0.96531 -2.384006,-0.75032 -1.229643,0.215 -2.915536,2.23107 l -2.705585,3.23546 z"
       style="font-weight:900;font-family:Arial;-inkscape-font-specification:'Arial Heavy';stroke:none;fill:#000000;fill-opacity:1"
       id="path38749" />
    <path
       d="m 113.65515,110.47778 6.58423,-6.35748 q 1.66859,1.50207 3.11817,1.79882 2.35244,0.47445 4.4503,-1.3117 1.56533,-1.33274 1.78619,-2.77338 0.22326,-1.47052 -0.60112,-2.438761 -0.78316,-0.91983 -2.20831,-0.959032 -1.42515,-0.0392 -4.91174,1.815913 -5.72949,3.0132 -9.30403,2.96688 -3.59068,-0.0326 -5.95389,-2.80821 -1.55258,-1.823519 -1.87761,-4.33033 -0.32263,-2.536689 1.00821,-5.256408 1.33323,-2.749596 5.02869,-5.895966 4.5346,-3.86083 8.34945,-4.186128 3.81725,-0.355176 7.40173,2.939436 l -6.54717,6.270247 q -1.63455,-1.364026 -3.14039,-1.33453 -1.4897,0.01576 -3.03889,1.33476 -1.27485,1.085429 -1.4532,2.183684 -0.19209,1.082118 0.46741,1.856711 0.48089,0.564808 1.39813,0.563248 0.91485,0.02832 3.19482,-1.217003 5.67214,-3.047871 8.64453,-3.741475 2.9748,-0.72348 5.24351,0.04495 2.28485,0.754688 3.9336,2.691173 1.93728,2.275369 2.31358,5.267406 0.3763,2.992037 -1.03108,5.916097 -1.42111,2.90793 -4.85837,5.83446 -6.03538,5.13862 -10.33766,4.79334 -4.30229,-0.34528 -7.65909,-3.66672 z"
       style="font-weight:900;font-family:Arial;-inkscape-font-specification:'Arial Heavy';stroke:none;fill:#000000;fill-opacity:1"
       id="path38751" />
    <path
       d="m 130.08687,70.285602 8.28833,-4.845793 5.9262,10.136284 2.76466,-15.217413 11.01451,-6.439663 -3.85484,15.830246 19.97593,10.735751 -10.20947,5.96899 -12.10399,-7.727405 -1.6606,6.985777 3.82957,6.550161 -8.28833,4.845793 z"
       style="font-weight:900;font-family:Arial;-inkscape-font-specification:'Arial Heavy';stroke:none;fill:#000000;fill-opacity:1"
       id="path38753" />
    <path
       d="m 165.9924,50.98109 8.89663,-3.665447 11.836,28.727894 -8.89663,3.665447 z"
       style="font-weight:900;font-family:Arial;-inkscape-font-specification:'Arial Heavy';stroke:none;fill:#000000;fill-opacity:1"
       id="path38755" />
    <path
       d="m 202.98713,53.949805 q -1.36392,-7.485453 2.04641,-12.415462 3.41033,-4.930009 10.85408,-6.286322 7.63141,-1.390507 12.50832,1.964868 4.87311,3.334525 6.21803,10.715724 0.97639,5.358667 -0.21076,9.129586 -1.17011,3.74627 -4.24012,6.287616 -3.05296,2.516696 -8.14057,3.443701 -5.17101,0.942201 -8.86983,-0.08575 -3.67797,-1.031746 -6.43357,-4.213522 -2.7556,-3.181775 -3.73199,-8.540442 z m 9.45303,-1.679335 q 0.84342,4.628887 2.92171,6.339885 2.09914,1.707198 5.05996,1.167712 3.04423,-0.554683 4.35137,-2.839449 1.30714,-2.284766 0.37254,-7.414074 -0.78643,-4.316125 -2.89883,-5.977822 -2.09534,-1.686348 -5.07701,-1.143062 -2.85657,0.52049 -4.21867,2.858355 -1.36209,2.337865 -0.51107,7.008455 z"
       style="font-weight:900;font-family:Arial;-inkscape-font-specification:'Arial Heavy';stroke:none;fill:#000000;fill-opacity:1"
       id="path38757" />
    <path
       d="m 240.95933,52.989044 9.13175,-0.617037 q 0.30763,2.223903 1.22469,3.385097 1.49282,1.87898 4.24803,1.865466 2.0558,-0.01008 3.15321,-0.969213 1.11849,-0.980428 1.11225,-2.252061 -0.006,-1.208052 -1.07029,-2.156579 -1.06437,-0.948528 -4.92582,-1.777364 -6.32274,-1.389014 -9.0259,-3.728334 -2.72436,-2.339216 -2.74224,-5.984565 -0.0118,-2.394909 1.35546,-4.521054 1.3883,-2.147443 4.15877,-3.369112 2.79157,-1.242967 7.64497,-1.266771 5.95548,-0.02921 9.0819,2.180868 3.1475,2.18878 3.76463,7.018076 l -9.04719,0.574233 q -0.37059,-2.096428 -1.54093,-3.044435 -1.14915,-0.948112 -3.18376,-0.938133 -1.67432,0.0082 -2.51854,0.732962 -0.84432,0.703556 -0.83933,1.720863 0.004,0.741786 0.70594,1.331784 0.68122,0.611297 3.22709,1.12867 6.30124,1.325536 9.02091,2.711027 2.74077,1.364193 3.9801,3.413971 1.26052,2.049674 1.273,4.592941 0.0147,2.988338 -1.6261,5.518518 -1.64075,2.530181 -4.60145,3.858754 -2.96081,1.30738 -7.4751,1.329521 -7.92652,0.03888 -10.99341,-2.998074 -3.06688,-3.036951 -3.49264,-7.740019 z m 13.86602,-29.252692 7.41786,-0.03638 -6.81455,6.370547 -4.13281,0.02027 z"
       style="font-weight:900;font-family:Arial;-inkscape-font-specification:'Arial Heavy';stroke:none;fill:#000000;fill-opacity:1"
       id="path38759" />
    <path
       d="m 274.19396,63.59623 5.04832,-30.657746 15.78895,2.599917 q 4.39162,0.723156 6.58894,1.858246 2.19732,1.13509 3.2819,3.418681 1.08802,2.262678 0.60592,5.19043 -0.42012,2.551327 -1.81405,4.233474 -1.39049,1.661234 -3.48292,2.498055 -1.33346,0.532209 -3.52482,0.665393 1.60093,0.84357 2.28172,1.535621 0.46083,0.462515 1.24054,1.858202 0.80063,1.399131 1.02504,2.12343 l 3.11631,9.641966 -10.70721,-1.763122 -3.5181,-10.202158 q -0.66238,-1.977794 -1.3257,-2.645489 -0.90763,-0.879762 -2.2042,-1.093265 l -0.8365,-0.137744 -2.04894,12.442946 z m 12.51801,-16.668875 3.99429,0.657727 q 0.64829,0.106752 2.57838,-0.005 0.97205,-0.03325 1.68502,-0.710593 0.73387,-0.673899 0.89917,-1.6777 0.24449,-1.484788 -0.56571,-2.434426 -0.81021,-0.949637 -3.40336,-1.376643 l -4.16159,-0.685276 z"
       style="font-weight:900;font-family:Arial;-inkscape-font-specification:'Arial Heavy';stroke:none;fill:#000000;fill-opacity:1"
       id="path38761" />
    <path
       d="m 310.70963,54.368627 q 2.55819,-7.165746 7.97543,-9.732629 5.41723,-2.566882 12.54306,-0.02294 7.30547,2.608073 9.85381,7.951176 2.55546,5.323143 0.0329,12.389088 -1.83135,5.129796 -4.74367,7.803293 -2.88523,2.660663 -6.8143,3.328365 -3.90198,0.654868 -8.77229,-1.083848 -4.95016,-1.767219 -7.64074,-4.505601 -2.67062,-2.731256 -3.46809,-6.864181 -0.79746,-4.132925 1.03389,-9.262721 z m 9.02776,3.267946 q -1.58194,4.431185 -0.63641,6.951656 0.96549,2.527597 3.79986,3.539473 2.9142,1.040379 5.18798,-0.285779 2.27378,-1.326157 4.02675,-6.23639 1.47506,-4.131781 0.47535,-6.626583 -0.97262,-2.507637 -3.82694,-3.526638 -2.73456,-0.976246 -5.08247,0.368454 -2.34792,1.3447 -3.94412,5.815807 z"
       style="font-weight:900;font-family:Arial;-inkscape-font-specification:'Arial Heavy';stroke:none;fill:#000000;fill-opacity:1"
       id="path38763" />
    <path
       d="m 356.12345,55.356331 12.35388,7.129767 q 3.65293,2.108208 5.32034,4.391924 1.68577,2.29431 2.08429,4.995831 0.39852,2.70152 -0.36025,5.542666 -0.75877,2.841147 -2.34787,5.594612 -2.48959,4.313761 -4.85806,6.128021 -2.33951,1.806498 -5.01565,2.415433 -2.66554,0.590579 -4.97362,-0.03183 -3.15886,-0.84425 -5.37999,-2.126125 l -12.35388,-7.129767 z m 4.79826,10.893421 -8.4858,14.703503 2.03756,1.175935 q 2.60661,1.504349 4.03641,1.57094 1.4404,0.04824 2.89085,-1.023371 1.46105,-1.089962 3.32559,-4.320694 2.4684,-4.277049 1.9844,-6.660847 -0.484,-2.383797 -3.71474,-4.248343 z"
       style="font-weight:900;font-family:Arial;-inkscape-font-specification:'Arial Heavy';stroke:none;fill:#000000;fill-opacity:1"
       id="path38765" />
    <path
       d="m 389.22319,75.696045 19.81933,16.407659 -4.23031,5.109924 -12.40749,-10.27168 -3.14908,3.803873 11.50958,9.528339 -4.0411,4.88136 -11.50957,-9.528334 -3.90595,4.718114 12.76665,10.56901 -4.4871,5.42012 -20.17849,-16.705001 z"
       style="font-weight:900;font-family:Arial;-inkscape-font-specification:'Arial Heavy';stroke:none;fill:#000000;fill-opacity:1"
       id="path38767" />
    <path
       d="m 417.10444,99.855538 6.21466,7.318202 -8.94986,7.60028 15.46634,0.0733 8.25878,9.72529 -16.2596,-1.0402 -7.09434,21.53984 -7.65515,-9.01448 5.50231,-13.26439 -7.16819,-0.41913 -5.78349,4.91137 -6.21466,-7.31821 z"
       style="font-weight:900;font-family:Arial;-inkscape-font-specification:'Arial Heavy';stroke:none;fill:#000000;fill-opacity:1"
       id="path38769" />
    <path
       d="m 451.29115,144.47725 3.74002,8.3107 -14.48083,10.11916 17.79467,-2.7555 3.73133,8.29138 -13.8546,11.51072 17.17713,-4.12773 3.72263,8.27205 -31.14305,6.50819 -3.8618,-8.58129 15.6037,-12.9951 -20.06564,3.08025 -3.86179,-8.58128 z"
       style="font-weight:900;font-family:Arial;-inkscape-font-specification:'Arial Heavy';stroke:none;fill:#000000;fill-opacity:1"
       id="path38771" />
    <path
       d="m 455.76075,194.92913 q 7.42534,-1.6603 12.48698,1.55141 5.06164,3.21172 6.7127,10.59569 1.69268,7.57012 -1.46623,12.57652 -3.13823,5.00177 -10.46015,6.63896 -5.31563,1.18858 -9.13075,0.15222 -3.78981,-1.0203 -6.45116,-3.9869 -2.63603,-2.95053 -3.76448,-7.99728 -1.14696,-5.12948 -0.26682,-8.86623 0.88477,-3.71607 3.95452,-6.59594 3.06976,-2.87987 8.38539,-4.06845 z m 2.05368,9.37883 q -4.59172,1.02671 -6.21877,3.17136 -1.62243,2.16532 -0.96571,5.10237 0.67523,3.01977 3.01013,4.23509 2.33491,1.21531 7.42303,0.0776 4.28146,-0.95733 5.8579,-3.1341 1.60174,-2.1607 0.94039,-5.11842 -0.6336,-2.83363 -3.02375,-4.10174 -2.39015,-1.26812 -7.02322,-0.23216 z"
       style="font-weight:900;font-family:Arial;-inkscape-font-specification:'Arial Heavy';stroke:none;fill:#000000;fill-opacity:1"
       id="path38773" />
    <path
       d="m 479.17589,233.87621 0.55588,14.25282 q 0.16437,4.21443 -0.87848,6.84276 -1.04202,2.6495 -3.11492,4.42716 -2.07291,1.77767 -4.88103,2.65076 -2.80812,0.87309 -5.98483,0.99698 -4.97684,0.19411 -7.77459,-0.84213 -2.77574,-1.01589 -4.71788,-2.95511 -1.92095,-1.94006 -2.62515,-4.22451 -0.97019,-3.12249 -1.07013,-5.68503 l -0.55588,-14.25283 z m -6.65695,9.86788 -16.96361,0.6616 0.0917,2.35076 q 0.11728,3.00728 0.82336,4.25236 0.72726,1.24425 2.40723,1.89988 1.70115,0.6548 5.42848,0.50943 4.93448,-0.19245 6.69302,-1.87302 1.75854,-1.68056 1.61317,-5.4079 z"
       style="font-weight:900;font-family:Arial;-inkscape-font-specification:'Arial Heavy';stroke:none;fill:#000000;fill-opacity:1"
       id="path38775" />
    <path
       d="m 479.70609,273.27894 -1.28319,8.87281 -18.686,9.1185 17.01148,2.46021 -1.29533,8.95672 -30.7507,-4.44719 1.29533,-8.95672 18.55103,-9.07377 -16.88561,-2.44201 1.29229,-8.93574 z"
       style="font-weight:900;font-family:Arial;-inkscape-font-specification:'Arial Heavy';stroke:none;fill:#000000;fill-opacity:1"
       id="path38777" />
    <path
       d="m 473.537,311.44735 -3.40808,10.10121 -11.94611,2.59037 7.935,9.29813 -3.38775,10.04097 -13.24777,-17.21944 -12.3303,-4.16017 3.07608,-9.1172 12.33031,4.16017 z"
       style="font-weight:900;font-family:Arial;-inkscape-font-specification:'Arial Heavy';stroke:none;fill:#000000;fill-opacity:1"
       id="path38779" />
  </g>
  <g
     aria-label="STANICA"
     id="text2264-0"
     style="font-size:43.4056px;line-height:1.25;font-family:'Work Sans';-inkscape-font-specification:'Work Sans';stroke-width:1.86423;stroke:none;fill:#000000;fill-opacity:1">
    <path
       d="m 158.07733,449.65784 8.62646,3.05843 q -0.6004,2.1633 -0.21961,3.59311 0.62433,2.31718 3.15855,3.39843 1.89091,0.80678 3.27887,0.36205 1.41578,-0.45591 1.91482,-1.62554 0.47408,-1.11116 -0.12634,-2.40425 -0.60041,-1.29309 -3.81562,-3.5866 -5.25194,-3.78465 -6.80445,-7.00478 -1.572,-3.22844 -0.14143,-6.5814 0.93986,-2.20282 3.0387,-3.61159 2.12665,-1.41995 5.15444,-1.44153 3.0556,-0.0328 7.51972,1.87189 5.4778,2.33717 7.47009,5.60668 2.02011,3.25833 0.66959,7.93583 l -8.53185,-3.06414 q 0.49202,-2.07129 -0.20587,-3.40597 -0.67839,-1.32636 -2.54981,-2.12483 -1.54003,-0.65706 -2.60257,-0.32696 -1.05423,0.31061 -1.45346,1.24632 -0.29111,0.68228 0.11931,1.50259 0.3826,0.83147 2.51394,2.3169 5.2574,3.71785 7.20368,6.06907 1.9741,2.34004 2.29797,4.71335 0.34336,2.38164 -0.65471,4.72091 -1.17275,2.74865 -3.68303,4.41968 -2.51029,1.67103 -5.75512,1.71523 -3.2365,0.0247 -7.38872,-1.74688 -7.29073,-3.11067 -8.90017,-7.11549 -1.60944,-4.00482 -0.13338,-8.49051 z"
       style="font-weight:900;font-family:Arial;-inkscape-font-specification:'Arial Heavy';text-align:center;text-anchor:middle;stroke:none;fill:#000000;fill-opacity:1"
       id="path38818" />
    <path
       d="m 190.82958,441.07257 28.12237,7.80112 -2.05084,7.3931 -9.43539,-2.61737 -6.2545,22.54691 -9.25158,-2.56638 6.25449,-22.54691 -9.43539,-2.61737 z"
       style="font-weight:900;font-family:Arial;-inkscape-font-specification:'Arial Heavy';text-align:center;text-anchor:middle;stroke:none;fill:#000000;fill-opacity:1"
       id="path38820" />
    <path
       d="m 231.72245,476.39577 -10.83967,-1.44966 -2.17138,4.88425 -9.7263,-1.30075 15.69352,-29.24845 10.37752,1.38785 7.45632,32.34442 -9.95737,-1.33166 z m -1.10509,-6.92615 -1.92259,-11.52588 -4.86271,10.61844 z"
       style="font-weight:900;font-family:Arial;-inkscape-font-specification:'Arial Heavy';text-align:center;text-anchor:middle;stroke:none;fill:#000000;fill-opacity:1"
       id="path38822" />
    <path
       d="m 245.09857,451.95585 8.96337,-0.17728 12.03676,16.95375 -0.33989,-17.18509 9.04813,-0.17896 0.6144,31.06454 -9.04813,0.17895 -11.97068,-16.82786 0.33737,17.05795 -9.02694,0.17853 z"
       style="font-weight:900;font-family:Arial;-inkscape-font-specification:'Arial Heavy';text-align:center;text-anchor:middle;stroke:none;fill:#000000;fill-opacity:1"
       id="path38824" />
    <path
       d="m 277.93015,450.55024 9.53359,-1.30241 4.20558,30.78468 -9.53359,1.30241 z"
       style="font-weight:900;font-family:Arial;-inkscape-font-specification:'Arial Heavy';text-align:center;text-anchor:middle;stroke:none;fill:#000000;fill-opacity:1"
       id="path38826" />
    <path
       d="m 315.47969,461.82782 8.78093,0.40043 q 0.0468,3.63924 -1.13751,6.38772 -1.18436,2.74849 -3.51774,4.58542 -2.31283,1.83173 -6.36038,2.85647 -4.91047,1.2432 -8.39236,0.61619 -3.46655,-0.65276 -6.63689,-3.67611 -3.17035,-3.02334 -4.59041,-8.63237 -1.89342,-7.47871 1.05761,-12.48909 2.96638,-5.03612 10.23963,-6.87752 5.69121,-1.44087 9.52005,0.0384 3.84939,1.47408 6.63822,5.8402 l -7.75541,3.90926 q -0.77998,-1.26734 -1.41379,-1.78463 -1.05123,-0.87072 -2.3269,-1.15991 -1.27567,-0.28919 -2.6728,0.0645 -3.16406,0.80106 -4.20382,3.77529 -0.79529,2.21273 0.22944,6.26027 1.26922,5.0132 3.26297,6.49795 1.98854,1.46421 4.7417,0.76718 2.67096,-0.67622 3.64727,-2.51938 0.99685,-1.84836 0.89019,-4.86029 z"
       style="font-weight:900;font-family:Arial;-inkscape-font-specification:'Arial Heavy';text-align:center;text-anchor:middle;stroke:none;fill:#000000;fill-opacity:1"
       id="path38828" />
    <path
       d="m 346.81703,458.31707 -10.08175,4.23772 0.60024,5.31136 -9.04623,3.80245 -1.27413,-33.16827 9.65191,-4.05705 22.80531,24.11795 -9.26114,3.89279 z m -4.45955,-5.41343 -7.49326,-8.96623 1.1824,11.61891 z"
       style="font-weight:900;font-family:Arial;-inkscape-font-specification:'Arial Heavy';text-align:center;text-anchor:middle;stroke:none;fill:#000000;fill-opacity:1"
       id="path38830" />
  </g>
</svg>
