<svg width="90" height="90" viewBox="0 0 90 90" fill="none" xmlns="http://www.w3.org/2000/svg">
<path d="M46.5358 12.0733C45.5512 13.6799 44.4649 13.6791 42.2333 13.1095C41.6117 12.9508 40.9473 13.9001 41.0796 14.4805C42.2168 13.5633 43.7277 15.3706 46.0007 15.7109C46.059 15.7271 46.0561 16.0147 46.048 16.2494C45.7001 16.2352 45.3514 16.2238 44.9999 16.2238C42.332 16.2352 39.6897 16.6256 37.1429 17.3609C39.9051 18.057 44.1555 18.8408 45.9404 20.5522C45.9169 21.6824 45.9022 22.3956 45.8784 23.545C41.1782 20.7837 31.8706 20.1226 30.1757 20.1503C28.4809 20.1779 28.3809 20.3891 28.3387 20.9548C28.2965 21.5205 29.654 21.6125 30.486 22.2254C25.341 26.8798 22.1707 32.4264 20.7406 36.8305C19.5413 40.5237 18.9688 44.791 18.8171 49.663C17.6623 49.5926 17.3685 49.975 17.0857 50.5129C17.0613 51.1267 17.2686 51.4037 17.7965 51.5971H17.71C28.5029 51.5971 35.481 52.7099 44.5196 54.1641C44.3529 54.9027 44.2915 55.7036 44.1776 56.4732H18.6447C19.3483 58.0831 20.1979 59.625 21.1827 61.0799H68.8171C69.8021 59.6251 70.6517 58.0831 71.3555 56.4732H48.2335C48.0743 53.3388 48.1111 54.9636 47.7539 47.0807C50.2305 46.4039 52.5482 46.2323 54.7463 46.4581C54.7947 46.4628 54.8423 46.4692 54.8904 46.4744C55.1128 46.4991 55.3344 46.5268 55.5543 46.5596C55.6648 46.5759 55.7747 46.594 55.8844 46.6124C56.0628 46.6423 56.2403 46.675 56.4171 46.7101C56.5124 46.7292 56.6079 46.7477 56.7026 46.7684C62.1853 47.9487 66.9439 51.5827 71.613 55.9524C72.3602 54.1978 73.7763 48.8788 73.7763 45.0002C73.7763 31.1565 63.9994 19.5998 50.9746 16.8489C50.7187 16.7958 50.4611 16.7486 50.2034 16.7021C50.0272 16.6699 49.8513 16.6364 49.674 16.6074C49.3647 16.5572 49.0536 16.5144 48.7421 16.4739C48.5862 16.4536 48.4307 16.4323 48.274 16.4146C47.9943 16.3826 47.7133 16.3576 47.432 16.3335C47.3108 16.3234 47.1881 16.3183 47.0665 16.3093C47.0385 15.3307 46.919 12.1533 46.5358 12.0733ZM71.613 55.9524L71.3183 55.8427C71.3554 55.8695 71.3911 55.8982 71.4284 55.9248L71.613 55.9524ZM47.2331 21.7638C49.3386 23.7937 50.3855 27.1315 50.2664 29.8551C50.0788 34.1447 49.0627 34.9367 47.7498 37.3129C47.5715 32.1956 47.4114 26.8811 47.2331 21.7638ZM22.4799 62.8123C25.1646 66.2189 28.5847 68.9745 32.4844 70.8731C36.3841 72.7718 40.6626 73.7643 44.9999 73.7765C49.3373 73.7643 53.6158 72.7718 57.5156 70.8732C61.4154 68.9746 64.8355 66.219 67.5203 62.8123H22.4799Z" fill="#F4F4F4"/>
<path d="M9.84441 63.2215C8.78523 63.2215 7.96365 63.5939 7.32683 63.9425C6.69 64.2911 6.2201 64.5823 5.82342 64.6466L4.87207 64.8011L5.31599 65.6567C13.0077 80.4771 28.3005 89.7981 44.9979 89.8424H45H45.0017C61.6998 89.7982 76.9936 80.4766 84.685 65.6553L85.1389 64.7805L84.1628 64.6432C83.6068 64.565 83.0491 64.2633 82.3412 63.9222C81.6332 63.5812 80.7655 63.222 79.6643 63.2215C78.493 63.221 77.6546 63.6624 76.928 64.0208C76.2014 64.3792 75.5695 64.6769 74.5048 64.6769C73.744 64.6769 73.1289 64.3827 72.4318 64.0211C71.7348 63.6595 70.953 63.2102 69.9513 63.2215C68.7908 63.2345 67.9889 63.6759 67.3119 64.019C66.6348 64.3622 66.065 64.6355 65.0061 64.6154H64.9982L25.0131 64.7538H25.0097C23.7903 64.7701 23.0599 64.4481 22.2484 64.0671C21.4368 63.6861 20.5264 63.2215 19.2522 63.2215C18.0936 63.2215 17.266 63.6619 16.6134 64.0249C15.9609 64.3878 15.4855 64.664 14.7241 64.6772C13.9683 64.6903 13.3428 64.399 12.5914 64.0321C11.84 63.6652 10.9645 63.2215 9.84441 63.2215ZM69.9671 64.6164C70.5262 64.6101 71.0747 64.8889 71.7891 65.2595C72.5035 65.63 73.3806 66.0721 74.5048 66.0721C75.8505 66.0721 76.796 65.6417 77.5452 65.2722C78.2945 64.9026 78.8307 64.6164 79.6639 64.6168C80.47 64.6171 81.0806 64.8637 81.7355 65.1791C82.1363 65.3722 82.5565 65.5924 83.0209 65.7679C75.4443 79.6823 60.891 88.4037 45.0017 88.4471C29.0959 88.4049 14.5281 79.6671 6.95707 65.7284C7.33236 65.5542 7.66986 65.3455 7.99699 65.1664C8.56524 64.8554 9.10052 64.6168 9.84441 64.6168C10.5945 64.6168 11.2234 64.9169 11.9792 65.2859C12.735 65.6549 13.6202 66.0916 14.7481 66.0721C15.8598 66.0529 16.6505 65.6011 17.2918 65.2444C17.9331 64.8877 18.4272 64.6168 19.2521 64.6168C20.1978 64.6168 20.816 64.9361 21.6554 65.3302C22.4947 65.7243 23.5376 66.1685 25.0279 66.1487C25.028 66.1487 25.028 66.1487 25.0282 66.1487L64.9796 66.0103C66.3157 66.0357 67.2331 65.6232 67.9425 65.2636C68.652 64.904 69.1358 64.6258 69.9671 64.6164Z" fill="#F4F4F4"/>
<path d="M45 0C20.1573 2.96766e-08 2.96766e-08 20.1573 0 45C0 69.8427 20.1573 90 45 90C69.8427 90 90 69.8427 90 45C90 20.1573 69.8427 0 45 0ZM45 1.71078C68.918 1.71078 88.2892 21.082 88.2892 45C88.2892 68.918 68.918 88.2892 45 88.2892C21.082 88.2892 1.71078 68.918 1.71078 45C1.71078 21.082 21.082 1.71078 45 1.71078Z" fill="#F4F4F4"/>
<path d="M6.64736 54.1592L6.36353 52.4956L8.24751 52.1742L7.93737 50.3563L6.05339 50.6778L5.76831 49.0068L11.1521 48.0883L11.4372 49.7592L9.25946 50.1308L9.5696 51.9486L11.7474 51.5771L12.0312 53.2407L6.64736 54.1592Z" fill="#F4F4F4"/>
<path d="M10.2222 43.585L10.1975 45.5073L11.0957 45.7833L11.0735 47.5081L5.63867 45.3855L5.66226 43.5452L11.1498 41.5626L11.1271 43.3284L10.2222 43.585ZM9.03674 43.9238L7.06581 44.5021L9.02132 45.127L9.03674 43.9238Z" fill="#F4F4F4"/>
<path d="M11.2655 40.9961L5.89911 39.9804L6.42222 37.2167C6.51922 36.7042 6.63728 36.3208 6.77641 36.0666C6.91553 35.8123 7.12038 35.6249 7.39094 35.5042C7.65907 35.383 7.96395 35.3548 8.3056 35.4195C8.60333 35.4758 8.84878 35.588 9.04195 35.756C9.23268 35.9236 9.37414 36.1311 9.46633 36.3786C9.52495 36.5363 9.559 36.7437 9.56847 37.0008C9.67178 36.8156 9.76492 36.6841 9.8479 36.6062C9.90337 36.5535 10.014 36.4835 10.1796 36.396C10.3458 36.3061 10.4716 36.2491 10.5571 36.2248L12.2646 35.7176L11.9098 37.5918L10.1022 38.1673C9.86867 38.2393 9.71185 38.3133 9.63177 38.3891C9.52616 38.493 9.45904 38.6206 9.4304 38.7719L9.40269 38.9183L11.5807 39.3306L11.2655 40.9961ZM8.38872 38.7264L8.52106 38.0272C8.53538 37.9516 8.53869 37.8005 8.53099 37.5741C8.52981 37.4601 8.49054 37.3604 8.41318 37.275C8.33628 37.1871 8.23927 37.1321 8.12213 37.11C7.94886 37.0772 7.80547 37.1069 7.69195 37.1992C7.57843 37.2914 7.49303 37.4889 7.43576 37.7915L7.29788 38.5199L8.38872 38.7264Z" fill="#F4F4F4"/>
<path d="M11.6252 31.1435L12.565 29.917C12.9181 30.1562 13.1871 30.4248 13.3722 30.7228C13.5572 31.0207 13.6599 31.3434 13.6803 31.6908C13.7016 32.0359 13.6259 32.4374 13.4534 32.8952C13.2442 33.4507 12.9928 33.8749 12.6993 34.1678C12.4044 34.4574 12.0054 34.6535 11.5024 34.7559C10.9993 34.8583 10.4305 34.79 9.79603 34.551C8.95001 34.2323 8.38489 33.7632 8.10066 33.1439C7.81498 32.5214 7.82713 31.7988 8.1371 30.976C8.37965 30.3322 8.70025 29.8757 9.09891 29.6065C9.49845 29.335 10.0015 29.2114 10.6082 29.2356L10.3931 30.747C10.219 30.7371 10.0858 30.7454 9.99364 30.7717C9.8395 30.8145 9.70582 30.8875 9.59258 30.9908C9.47934 31.0942 9.39296 31.2248 9.33341 31.3829C9.19857 31.7408 9.23935 32.0694 9.45575 32.3685C9.61529 32.5932 9.924 32.7918 10.3819 32.9642C10.949 33.1779 11.3707 33.2386 11.647 33.1463C11.921 33.0531 12.1166 32.8508 12.2339 32.5393C12.3478 32.2372 12.3487 31.9774 12.2369 31.7601C12.1259 31.5405 11.922 31.3349 11.6252 31.1435Z" fill="#F4F4F4"/>
<path d="M9.91205 27.0651L12.192 23.1591L13.1991 23.7469L11.7718 26.1922L12.5215 26.6298L13.8455 24.3615L14.8075 24.923L13.4835 27.1913L14.4134 27.7341L15.882 25.218L16.9502 25.8415L14.6289 29.8184L9.91205 27.0651Z" fill="#F4F4F4"/>
<path d="M17.4924 25.0717L13.3026 21.5681L15.107 19.4104C15.4416 19.0103 15.7316 18.7331 15.977 18.579C16.2225 18.4249 16.4927 18.3611 16.7878 18.3877C17.081 18.4127 17.3609 18.5367 17.6276 18.7597C17.8601 18.9541 18.0197 19.1717 18.1064 19.4126C18.1912 19.6519 18.2135 19.9021 18.1733 20.1631C18.1476 20.3293 18.0762 20.527 17.9591 20.7561C18.1396 20.6448 18.285 20.5754 18.3954 20.5479C18.4696 20.529 18.6003 20.5217 18.7876 20.5262C18.9765 20.5287 19.1141 20.5402 19.2006 20.5607L20.9386 20.9505L19.715 22.4138L17.8563 22.0348C17.6172 21.9838 17.4442 21.9719 17.3374 21.9991C17.1945 22.0383 17.0737 22.1169 16.9749 22.235L16.8793 22.3494L18.5798 23.7714L17.4924 25.0717ZM16.0876 21.6874L16.5441 21.1415C16.5935 21.0824 16.6701 20.9522 16.7738 20.7507C16.8283 20.6507 16.8426 20.5445 16.8167 20.4322C16.7925 20.318 16.7346 20.2226 16.6431 20.1461C16.5079 20.033 16.3682 19.9891 16.2241 20.0143C16.08 20.0394 15.9091 20.1702 15.7116 20.4064L15.236 20.9752L16.0876 21.6874Z" fill="#F4F4F4"/>
<path d="M19.9784 19.4199L21.1358 18.3024C21.3314 18.4784 21.5141 18.5838 21.6839 18.6186C21.9596 18.6742 22.2204 18.5973 22.4662 18.388C22.6496 18.2318 22.7543 18.0693 22.7802 17.9005C22.8064 17.7282 22.7711 17.5853 22.6745 17.4718C22.5827 17.364 22.4534 17.3078 22.2863 17.3033C22.1193 17.2987 21.8315 17.4051 21.423 17.6225C20.7515 17.9756 20.2064 18.1494 19.7875 18.144C19.3667 18.1402 19.0178 17.9756 18.7409 17.6503C18.559 17.4367 18.4489 17.1829 18.4108 16.8892C18.373 16.5919 18.4321 16.2839 18.5881 15.9652C18.7443 15.643 19.039 15.2975 19.472 14.9288C20.0034 14.4763 20.4926 14.2311 20.9397 14.1929C21.387 14.1513 21.8207 14.3235 22.2408 14.7096L21.0899 15.8118C20.8984 15.652 20.7144 15.5738 20.5379 15.5772C20.3633 15.5791 20.1853 15.6573 20.0037 15.8119C19.8543 15.9391 19.7692 16.067 19.7483 16.1957C19.7258 16.3225 19.7531 16.4313 19.8304 16.5221C19.8868 16.5883 19.9687 16.6213 20.0762 16.6211C20.1834 16.6244 20.3706 16.5531 20.6378 16.4072C21.3025 16.05 21.809 15.8308 22.1573 15.7495C22.5059 15.6647 22.8132 15.6673 23.079 15.7574C23.3468 15.8458 23.5773 16.0035 23.7705 16.2305C23.9975 16.4971 24.1331 16.8057 24.1772 17.1564C24.2213 17.507 24.1609 17.8536 23.9959 18.1963C23.8294 18.5371 23.5447 18.8789 23.1419 19.2219C22.4346 19.8241 21.8289 20.1049 21.3248 20.0645C20.8206 20.024 20.3718 19.8092 19.9784 19.4199Z" fill="#F4F4F4"/>
<path d="M22.8668 12.3549L24.3238 11.5031L25.3655 13.2849L25.8514 10.6099L27.7876 9.47797L27.11 12.2606L30.6214 14.1478L28.8267 15.197L26.6991 13.8387L26.4072 15.0666L27.0804 16.218L25.6234 17.0698L22.8668 12.3549Z" fill="#F4F4F4"/>
<path d="M29.1783 8.96152L30.7422 8.3172L32.8228 13.367L31.2589 14.0113L29.1783 8.96152Z" fill="#F4F4F4"/>
<path d="M35.6813 9.48337C35.5215 8.60616 35.6414 7.8787 36.0411 7.30096C36.4407 6.72323 37.0767 6.35489 37.949 6.19594C38.8433 6.03299 39.5762 6.14812 40.1477 6.54133C40.7188 6.9321 41.0831 7.55997 41.2408 8.42495C41.3552 9.05292 41.3428 9.58786 41.2037 10.0298C41.0666 10.4688 40.8181 10.8372 40.4584 11.135C40.1006 11.4299 39.6236 11.6317 39.0274 11.7403C38.4214 11.8508 37.9017 11.8457 37.4683 11.7253C37.0372 11.6044 36.6603 11.3575 36.3374 10.9846C36.0144 10.6118 35.7958 10.1113 35.6813 9.48337ZM37.343 9.18817C37.4418 9.73062 37.613 10.1021 37.8566 10.3026C38.1026 10.5027 38.3991 10.5711 38.746 10.5079C39.1028 10.4429 39.3577 10.2765 39.5109 10.0087C39.6641 9.741 39.6859 9.30658 39.5764 8.70549C39.4843 8.19969 39.3144 7.84943 39.0669 7.6547C38.8213 7.45708 38.5238 7.3901 38.1744 7.45377C37.8397 7.51477 37.5925 7.68225 37.4328 7.95622C37.2732 8.23018 37.2433 8.64084 37.343 9.18817Z" fill="#F4F4F4"/>
<path d="M42.3561 9.31449L43.9613 9.20602C43.9974 9.46664 44.0691 9.66498 44.1766 9.80106C44.3515 10.0213 44.6005 10.1306 44.9233 10.129C45.1642 10.1278 45.349 10.071 45.4776 9.9586C45.6087 9.84371 45.6738 9.71175 45.6731 9.56273C45.6724 9.42116 45.6097 9.2948 45.485 9.18365C45.3603 9.07249 45.0716 8.96835 44.6191 8.87122C43.8782 8.70844 43.3493 8.48999 43.0325 8.21585C42.7133 7.94172 42.5526 7.59106 42.5505 7.16387C42.5491 6.88322 42.6285 6.61831 42.7888 6.36916C42.9515 6.1175 43.1951 5.92009 43.5198 5.77693C43.8469 5.63127 44.2949 5.55705 44.8636 5.55426C45.5615 5.55083 46.0937 5.67862 46.4601 5.93761C46.8289 6.19411 47.0495 6.60532 47.1218 7.17126L45.5315 7.2722C45.4881 7.02652 45.3978 6.84814 45.2606 6.73704C45.126 6.62594 44.9394 6.57097 44.701 6.57214C44.5048 6.5731 44.3572 6.61604 44.2583 6.70098C44.1593 6.78343 44.1101 6.88426 44.1107 7.00347C44.1112 7.0904 44.1526 7.16844 44.2348 7.23758C44.3146 7.30921 44.5037 7.37534 44.8021 7.43597C45.5405 7.59131 46.0691 7.75016 46.3878 7.91252C46.709 8.07239 46.9422 8.27243 47.0874 8.51263C47.2351 8.75283 47.3097 9.02195 47.3112 9.31999C47.3129 9.67018 47.2176 9.99353 47.0253 10.29C46.8331 10.5865 46.5635 10.8126 46.2165 10.9683C45.8695 11.1215 45.4315 11.1994 44.9025 11.202C43.9736 11.2066 43.3295 11.0309 42.9701 10.675C42.6107 10.3191 42.406 9.86563 42.3561 9.31449ZM44.7935 4.17241L46.0974 4.16602L44.8996 5.28584L44.1731 5.2894L44.7935 4.17241Z" fill="#F4F4F4"/>
<path d="M48.1982 11.179L49.0856 5.78998L51.861 6.24699C52.3756 6.33174 52.7617 6.44062 53.0192 6.57364C53.2767 6.70666 53.469 6.90697 53.5961 7.17458C53.7236 7.43974 53.7591 7.74386 53.7026 8.08696C53.6534 8.38594 53.5471 8.634 53.3837 8.83113C53.2208 9.0258 53.0167 9.17217 52.7715 9.27024C52.6152 9.3326 52.4087 9.37159 52.1519 9.3872C52.3395 9.48606 52.4732 9.57603 52.553 9.65713C52.607 9.71133 52.6797 9.82021 52.771 9.98377C52.8649 10.1477 52.9249 10.2722 52.9512 10.357L53.499 12.0519L51.6169 11.742L50.9985 9.94863C50.9208 9.71686 50.8432 9.56185 50.7654 9.48361C50.6591 9.38051 50.5299 9.31645 50.378 9.29143L50.2309 9.26722L49.8708 11.4545L48.1982 11.179ZM50.3986 8.24896L51.1007 8.36458C51.1767 8.37709 51.3278 8.37679 51.554 8.3637C51.6679 8.3598 51.7666 8.31816 51.8502 8.23879C51.9362 8.15981 51.9888 8.06151 52.0082 7.94388C52.0369 7.76988 52.0037 7.62724 51.9088 7.51595C51.8138 7.40467 51.6144 7.324 51.3105 7.27396L50.579 7.15351L50.3986 8.24896Z" fill="#F4F4F4"/>
<path d="M54.617 9.557C54.9167 8.71726 55.3841 8.14699 56.0189 7.84619C56.6537 7.54538 57.3887 7.54403 58.2237 7.84215C59.0798 8.14779 59.6572 8.61368 59.9558 9.23982C60.2553 9.86363 60.2572 10.5895 59.9616 11.4176C59.747 12.0187 59.4691 12.476 59.1278 12.7893C58.7897 13.1011 58.3904 13.2961 57.9299 13.3743C57.4727 13.4511 56.9587 13.3876 56.3879 13.1838C55.8079 12.9767 55.3602 12.7127 55.0448 12.3918C54.7319 12.0717 54.5287 11.6695 54.4352 11.1852C54.3418 10.7009 54.4023 10.1581 54.617 9.557ZM56.2039 10.1314C56.0185 10.6507 55.9812 11.058 56.092 11.3534C56.2051 11.6496 56.4278 11.857 56.7599 11.9756C57.1015 12.0975 57.4054 12.0808 57.6719 11.9254C57.9384 11.7699 58.1743 11.4045 58.3797 10.8291C58.5526 10.3449 58.5804 9.95664 58.4633 9.66428C58.3493 9.37042 58.1251 9.16378 57.7906 9.04437C57.4701 8.92996 57.1723 8.95155 56.8972 9.10913C56.622 9.26672 56.3909 9.60749 56.2039 10.1314Z" fill="#F4F4F4"/>
<path d="M62.5998 9.73062L64.7714 10.9839C65.1995 11.231 65.5112 11.4883 65.7066 11.7559C65.9042 12.0248 66.0263 12.3175 66.073 12.6341C66.1197 12.9507 66.0986 13.2754 66.0097 13.6084C65.9208 13.9413 65.7832 14.2691 65.597 14.5918C65.3052 15.0973 65.0206 15.4564 64.743 15.669C64.4689 15.8807 64.175 16.0222 63.8614 16.0936C63.549 16.1628 63.2576 16.1609 62.9871 16.088C62.6169 15.9891 62.3017 15.8645 62.0414 15.7143L59.8698 14.461L62.5998 9.73062ZM63.4433 11.6455L61.9516 14.2301L62.3098 14.4368C62.6153 14.6131 62.8518 14.7051 63.0193 14.7129C63.1881 14.7186 63.3575 14.6586 63.5275 14.533C63.6987 14.4053 63.8936 14.1521 64.1121 13.7735C64.4013 13.2723 64.5176 12.882 64.4609 12.6027C64.4042 12.3233 64.1865 12.0744 63.8079 11.8559L63.4433 11.6455Z" fill="#F4F4F4"/>
<path d="M68.4181 13.3059L71.902 16.1901L71.1584 17.0883L68.9774 15.2828L68.4239 15.9514L70.447 17.6263L69.7367 18.4844L67.7135 16.8095L67.0269 17.6388L69.2711 19.4966L68.4823 20.4494L64.9353 17.513L68.4181 13.3059Z" fill="#F4F4F4"/>
<path d="M73.3191 17.5527L74.4115 18.8391L72.8383 20.1751L75.557 20.188L77.0088 21.8975L74.1506 21.7147L72.9036 25.501L71.5579 23.9164L72.5252 21.5848L71.2651 21.5111L70.2485 22.3744L69.1561 21.088L73.3191 17.5527Z" fill="#F4F4F4"/>
<path d="M79.3285 25.3964L79.986 26.8573L77.4405 28.636L80.5685 28.1517L81.2244 29.6091L78.789 31.6325L81.8084 30.9069L82.4628 32.361L76.9884 33.505L76.3096 31.9966L79.0524 29.7123L75.5253 30.2537L74.8464 28.7453L79.3285 25.3964Z" fill="#F4F4F4"/>
<path d="M80.1142 34.2649C80.9844 34.0703 81.716 34.1612 82.3092 34.5376C82.9024 34.914 83.2957 35.5348 83.4892 36.4001C83.6875 37.2873 83.6016 38.0242 83.2314 38.6108C82.8637 39.197 82.2508 39.586 81.3927 39.7778C80.7698 39.9171 80.2348 39.9261 79.7877 39.8046C79.3436 39.685 78.9656 39.4514 78.6537 39.1038C78.3448 38.758 78.1242 38.2894 77.992 37.698C77.8576 37.0969 77.842 36.5774 77.9451 36.1395C78.0488 35.704 78.2805 35.3175 78.6402 34.9801C79 34.6426 79.4913 34.4042 80.1142 34.2649ZM80.4752 35.9135C79.9371 36.0338 79.5728 36.2197 79.3821 36.471C79.192 36.7247 79.1354 37.0237 79.2123 37.3679C79.2915 37.7218 79.4678 37.9699 79.7415 38.1123C80.0151 38.2548 80.45 38.2593 81.0463 38.126C81.548 38.0138 81.8913 37.8301 82.076 37.5751C82.2637 37.3219 82.3188 37.0219 82.2413 36.6753C82.167 36.3433 81.9899 36.1029 81.7098 35.9543C81.4297 35.8057 81.0182 35.7921 80.4752 35.9135Z" fill="#F4F4F4"/>
<path d="M84.2301 41.1111L84.3278 43.6164C84.3471 44.1103 84.2956 44.5113 84.1734 44.8193C84.0513 45.1297 83.8688 45.3892 83.6259 45.5975C83.383 45.8058 83.097 45.9611 82.7679 46.0634C82.4388 46.1657 82.0881 46.2242 81.7159 46.2387C81.1326 46.2614 80.6771 46.2121 80.3492 46.0906C80.024 45.9716 79.7475 45.7984 79.5199 45.5712C79.2948 45.3438 79.141 45.0963 79.0585 44.8286C78.9448 44.4627 78.8821 44.1296 78.8704 43.8293L78.7726 41.3239L84.2301 41.1111ZM83.06 42.8456L80.0781 42.9619L80.0942 43.3752C80.1079 43.7276 80.1562 43.9767 80.2389 44.1226C80.3242 44.2685 80.4652 44.3798 80.6621 44.4566C80.8614 44.5333 81.1795 44.5632 81.6163 44.5462C82.1946 44.5236 82.5867 44.4139 82.7928 44.2169C82.9989 44.02 83.0934 43.7031 83.0764 43.2663L83.06 42.8456Z" fill="#F4F4F4"/>
<path d="M84.3233 48.0373L84.0978 49.597L80.8131 51.1999L83.8034 51.6323L83.5757 53.2067L78.1703 52.425L78.398 50.8506L81.659 49.2556L78.6908 48.8263L78.918 47.2556L84.3233 48.0373Z" fill="#F4F4F4"/>
<path d="M83.2389 54.7466L82.6399 56.5222L80.54 56.9776L81.9348 58.612L81.3393 60.377L79.0106 57.3501L76.8431 56.6189L77.3839 55.0162L79.5513 55.7475L83.2389 54.7466Z" fill="#F4F4F4"/>
<path d="M27.787 79.0414L29.3034 79.579C29.233 79.8325 29.2202 80.0431 29.2648 80.2106C29.338 80.4822 29.523 80.6813 29.82 80.808C30.0416 80.9025 30.2337 80.9238 30.3964 80.8716C30.5623 80.8182 30.6745 80.723 30.733 80.5859C30.7885 80.4557 30.7811 80.3148 30.7108 80.1633C30.6404 80.0117 30.4168 79.8016 30.04 79.5328C29.4246 79.0893 29.0259 78.6789 28.8439 78.3015C28.6597 77.9232 28.6514 77.5375 28.8191 77.1446C28.9292 76.8865 29.1073 76.6749 29.3532 76.5098C29.6024 76.3434 29.9045 76.2589 30.2593 76.2564C30.6174 76.2525 31.058 76.3622 31.5811 76.5854C32.223 76.8593 32.6607 77.1878 32.8942 77.571C33.1309 77.9528 33.1702 78.4178 33.0119 78.9659L31.5122 78.4273C31.5698 78.1846 31.5578 77.985 31.476 77.8286C31.3965 77.6732 31.2471 77.5487 31.0278 77.4551C30.8473 77.3781 30.6948 77.359 30.5703 77.3976C30.4468 77.434 30.3616 77.5071 30.3148 77.6167C30.2807 77.6967 30.2877 77.7847 30.3358 77.8808C30.3806 77.9783 30.5279 78.114 30.7777 78.2881C31.3938 78.7238 31.8159 79.0794 32.044 79.3549C32.2753 79.6292 32.4099 79.9053 32.4479 80.1835C32.4881 80.4626 32.4498 80.7392 32.3328 81.0133C32.1954 81.3354 31.9796 81.5944 31.6854 81.7902C31.3912 81.986 31.054 82.0865 30.6738 82.0917C30.2945 82.0946 29.8615 81.9923 29.375 81.7846C28.5206 81.4201 27.9991 81.0032 27.8105 80.5339C27.6219 80.0646 27.6141 79.5671 27.787 79.0414Z" fill="#F4F4F4"/>
<path d="M33.5443 77.5323L38.4877 78.9036L38.1272 80.2031L36.4686 79.743L35.3692 83.7064L33.7429 83.2552L34.8423 79.2919L33.1838 78.8318L33.5443 77.5323Z" fill="#F4F4F4"/>
<path d="M40.7325 83.7414L38.827 83.4866L38.4454 84.3452L36.7357 84.1165L39.4943 78.9752L41.3185 79.2191L42.6291 84.9047L40.8788 84.6706L40.7325 83.7414ZM40.5382 82.5239L40.2002 80.4979L39.3455 82.3644L40.5382 82.5239Z" fill="#F4F4F4"/>
<path d="M43.0837 79.4453L44.6593 79.4142L46.7752 82.3943L46.7154 79.3735L48.3059 79.3421L48.4139 84.8026L46.8234 84.8341L44.7192 81.8761L44.7785 84.8745L43.1917 84.9059L43.0837 79.4453Z" fill="#F4F4F4"/>
<path d="M48.8549 79.1983L50.5307 78.9693L51.27 84.3807L49.5942 84.6096L48.8549 79.1983Z" fill="#F4F4F4"/>
<path d="M55.4554 81.1807L56.999 81.251C57.0044 81.6775 56.9378 82.0518 56.799 82.3739C56.6602 82.696 56.4541 82.9647 56.1807 83.1799C55.9096 83.3946 55.5369 83.5619 55.0626 83.682C54.4872 83.8277 53.9954 83.8638 53.5874 83.7903C53.1812 83.7139 52.7923 83.4985 52.4208 83.1442C52.0492 82.7899 51.7803 82.2841 51.6138 81.6267C51.392 80.7503 51.4539 80.0186 51.7998 79.4314C52.1474 78.8412 52.7474 78.4383 53.5997 78.2225C54.2666 78.0536 54.8244 78.0559 55.2731 78.2292C55.7242 78.402 56.1132 78.7442 56.44 79.2558L55.0768 79.943C54.9854 79.7945 54.9025 79.6899 54.8282 79.6293C54.705 79.5272 54.5687 79.4593 54.4192 79.4254C54.2697 79.3915 54.1131 79.3953 53.9494 79.4367C53.5786 79.5306 53.3323 79.7518 53.2104 80.1004C53.1172 80.3597 53.1307 80.7265 53.2508 81.2008C53.3995 81.7883 53.5907 82.169 53.8243 82.343C54.0574 82.5146 54.3352 82.5595 54.6578 82.4779C54.9708 82.3986 55.1845 82.251 55.299 82.035C55.4158 81.8184 55.4679 81.5336 55.4554 81.1807Z" fill="#F4F4F4"/>
<path d="M60.9639 80.5635L59.1918 81.3085L59.2973 82.2421L57.7071 82.9105L57.4832 77.0801L59.1798 76.367L63.1885 80.6065L61.5606 81.2907L60.9639 80.5635ZM60.18 79.612L58.8629 78.0359L59.0707 80.0782L60.18 79.612Z" fill="#F4F4F4"/>
</svg>
