<svg width="255" height="100" viewBox="0 0 255 100" fill="none" xmlns="http://www.w3.org/2000/svg">
<path fill-rule="evenodd" clip-rule="evenodd" d="M5.67592 16.0647L83.866 7.90991L92.0993 85.4934C92.4672 88.9646 89.9287 92.1027 86.4596 92.4637L14.5588 99.966C11.0889 100.328 7.9487 97.784 7.58161 94.3112L0.035443 23.0359C-0.332448 19.5647 2.20608 16.4274 5.67592 16.0647ZM31.4275 69.0727C30.7907 69.0727 30.0549 69.0024 29.0159 68.7932C28.3192 68.6654 27.7318 68.274 27.3504 67.7213C26.9745 67.1646 26.862 66.4857 27.0352 65.8459L30.521 52.4116C30.0884 52.4915 29.7078 52.6361 29.3902 52.8549C28.6943 53.3381 28.3192 54.164 28.3384 55.1624C28.3559 56.5042 27.2395 57.6072 25.8158 57.6144C24.3969 57.652 23.2318 56.5929 23.2078 55.2343C23.1711 52.6632 24.3051 50.3781 26.3457 48.9492C28.5602 47.4173 31.4483 47.0898 34.4959 48.0411C35.7696 48.4444 36.5078 49.6976 36.1886 50.9316L32.7674 64.068C33.2718 63.9961 33.9373 63.9226 34.8223 63.8747C36.242 63.7965 37.4495 64.8204 37.5356 66.1479C37.6123 67.4913 36.5293 68.6374 35.1184 68.7237C34.2374 68.7596 33.6716 68.8395 33.168 68.9154C32.5551 69.0024 32.034 69.0727 31.4275 69.0727ZM57.0291 69.2564H56.8934C55.4809 69.183 54.3828 68.0488 54.4642 66.7149L54.7124 62.1815C54.7731 60.9379 55.8249 59.9618 57.1344 59.8884C60.1263 59.7446 62.3544 58.6967 63.2585 57.0226C63.8395 55.9339 63.7812 54.692 63.1332 53.7407C62.3687 52.6361 60.9075 52.0946 59.017 52.2024C57.6037 52.2838 56.3843 51.2727 56.2981 49.9436C56.2151 48.6018 57.2893 47.454 58.7042 47.3694C62.4429 47.1465 65.6175 48.5028 67.4107 51.073C69.073 53.4691 69.2398 56.5921 67.8392 59.1991C66.3645 61.945 63.4804 63.7965 59.7201 64.4722L59.5852 66.9633C59.5126 68.2525 58.381 69.2564 57.0291 69.2564ZM49.9905 69.6111C48.6602 69.6111 47.5246 68.6255 47.432 67.3571C47.3027 65.5225 47.1958 63.0704 47.2796 60.3979C46.4895 60.6104 45.6859 60.8221 44.8536 61.0497C44.8025 63.2757 44.6349 65.413 44.4011 67.274C44.2231 68.5887 42.9535 69.5472 41.5425 69.3874C40.1364 69.2157 39.1381 68.0224 39.3041 66.6806C39.4908 65.2685 39.6145 63.8292 39.6776 62.3987C39.3232 62.4985 38.9505 62.584 38.5827 62.6703C37.2132 62.9961 35.8143 62.2206 35.4695 60.9323C35.1136 59.636 35.9396 58.3037 37.3122 57.9619C38.123 57.7702 38.9059 57.5809 39.6839 57.3772C39.5331 54.2199 39.075 51.4771 38.3305 49.6769C37.8237 48.4285 38.4741 47.0291 39.7981 46.5459C41.1204 46.0643 42.6055 46.6777 43.1131 47.9237C44.0316 50.1729 44.532 53.0354 44.7458 56.0306C45.7482 55.7694 46.7242 55.513 47.6977 55.2718C48.0497 52.7599 48.6458 50.2959 49.6026 48.1897C50.1676 46.9604 51.6735 46.4005 52.9751 46.9333C54.2727 47.4676 54.8736 48.8917 54.3078 50.1209C53.8019 51.2287 53.3965 52.5642 53.0844 54.1257C54.5329 53.8749 55.9717 53.692 57.4329 53.5969C58.8526 53.5003 60.0584 54.5122 60.163 55.8421C60.2516 57.168 59.187 58.3301 57.7777 58.4267C56.0324 58.5346 54.2663 58.8029 52.4628 59.1815C52.3207 61.576 52.3543 64.2222 52.5522 67.0232C52.6479 68.3635 51.581 69.5128 50.1676 69.6111H49.9905ZM64.4252 69.873C63.2777 69.873 62.2339 69.1334 61.949 68.0336C61.6018 66.7405 62.4254 65.425 63.802 65.0976C67.9047 64.1191 70.7105 61.6519 71.728 58.1871C72.8053 54.4851 71.6586 50.3406 68.7889 47.6338C65.809 44.8207 61.4087 44.01 56.3875 45.3143C55.3461 45.5819 54.2384 45.1993 53.6191 44.3742C52.9903 43.5484 52.9815 42.4254 53.6 41.5947C55.382 39.1714 55.7778 35.6323 54.6773 32.1172C53.3614 27.9703 50.2387 24.5742 46.0163 22.7028C41.7939 24.5742 38.6641 27.9703 37.3521 32.1172C36.2484 35.6323 36.6442 39.1714 38.427 41.5947C39.0559 42.4254 39.0439 43.5587 38.4047 44.3942C37.7631 45.232 36.6355 45.5899 35.5972 45.3007C27.0104 42.8822 22.065 46.5723 20.2902 50.8126C18.6056 54.8653 19.3733 60.358 24.108 62.584C25.384 63.1719 25.8948 64.6263 25.2596 65.838C24.6347 67.0216 23.0881 67.5105 21.8312 66.9234C15.265 63.8284 12.5597 56.1536 15.5188 49.0331C17.6368 43.9597 23.1216 39.0141 32.0739 39.7449C31.3741 36.939 31.4746 33.7945 32.445 30.7243C34.2893 24.8777 38.854 20.1733 44.9757 17.8562C45.3164 17.7085 45.6739 17.6614 46.0147 17.6725C46.361 17.6614 46.7122 17.7093 47.0529 17.8562C53.1786 20.1733 57.7402 24.8777 59.5868 30.7243C60.5724 33.8456 60.6625 37.0365 59.9212 39.8647C64.8067 39.6315 69.1344 41.1083 72.4151 44.2017C76.5649 48.117 78.2288 54.1249 76.671 59.4954C75.1715 64.6263 70.9348 68.3874 65.0517 69.7852C64.8426 69.8499 64.6383 69.873 64.4252 69.873ZM46.0961 91.689H46.0171C45.6404 91.6986 45.2574 91.6387 44.8799 91.4646C40.7788 89.7146 38.0975 86.9718 37.3266 83.7602C37.1175 82.8433 37.0552 81.912 37.1534 81.0023C35.3179 80.9056 34.0155 80.2411 33.2215 79.6948C30.9471 78.091 29.7964 75.1789 30.2887 72.2564C30.5122 70.9225 31.8225 70.0272 33.2215 70.2349C34.6172 70.4489 35.5725 71.6829 35.349 73.0176C35.1607 74.1405 35.5406 75.2907 36.2787 75.8051C37.3904 76.579 39.2514 75.9217 40.2625 75.4512C41.3486 74.96 42.667 75.25 43.4115 76.1565C44.1521 77.0614 44.1138 78.3497 43.3309 79.2124C42.4068 80.2403 42.0461 81.4759 42.3334 82.6971C42.6917 84.1699 43.9789 85.5349 46.0179 86.5956C48.0848 85.5222 49.3792 84.1699 49.7279 82.6971C50.016 81.5222 49.6609 80.3138 48.7424 79.301C47.9531 78.4041 47.9308 77.1062 48.7088 76.2028C49.4861 75.2995 50.8308 75.0343 51.9169 75.587C53.446 76.3626 54.6294 76.4464 55.457 75.8306C56.3412 75.1613 56.5846 73.9696 56.4928 73.6294C55.9805 72.3754 56.6405 70.9848 57.9604 70.5048C59.2867 70.0272 60.7703 70.647 61.2882 71.9026C62.2259 74.222 61.1932 77.5119 58.9276 79.4C58.2557 79.9647 56.8902 80.8729 54.9159 81.0534C55.0077 81.9471 54.9486 82.8649 54.738 83.7602C53.9742 86.9718 51.2801 89.7082 47.1463 91.4646C46.8024 91.6235 46.4464 91.689 46.0961 91.689Z" fill="#F4F4F4"/>
<path d="M91.4902 29.4761L99.5511 15.049C100.287 13.7687 100.954 12.978 100.954 12.978L100.948 12.9181C100.948 12.9181 100.33 13.0443 99.3516 13.1465L94.245 13.6832C93.8292 13.7279 93.6169 13.9891 93.6616 14.4061L93.7949 15.6832L90.262 16.0554L89.9252 12.8454C89.7776 11.4492 90.3059 10.7631 91.7328 10.613L105.418 9.1737L105.674 11.6098L97.6158 26.0672C96.8841 27.3755 96.2129 28.1367 96.2129 28.1367L96.2193 28.1958C96.2193 28.1958 96.8362 28.072 97.817 27.9682L103.576 27.3619C103.992 27.3188 104.204 27.0552 104.16 26.6399L104.026 25.362L107.529 24.9938L107.866 28.2038C108.016 29.6295 107.485 30.2876 106.06 30.437L91.7495 31.9425L91.4902 29.4761ZM109.047 18.5857C108.85 18.1552 108.604 18.0921 108.158 18.1384L107.743 18.1824L107.405 14.9723L109.988 14.7016C111.235 14.5698 111.87 14.8933 112.288 16.021L115.398 24.1958C115.689 24.9762 115.863 25.7685 115.863 25.7685L115.922 25.7629C115.922 25.7629 115.956 24.9474 116.11 24.1216L117.863 13.9332L121.188 13.5826L125.047 23.1815C125.369 23.9586 125.542 24.7501 125.542 24.7501L125.601 24.7454C125.601 24.7454 125.606 23.9339 125.73 23.1104L127.043 14.4699C127.219 13.2799 127.773 12.831 129.018 12.6992L131.602 12.4276L131.939 15.6377L131.523 15.6808C131.076 15.7279 130.88 15.8389 130.748 16.3038L128.324 28.0943L124.079 28.5416L120.588 20.1663C120.266 19.3884 120.06 18.5681 120.06 18.5681L120 18.5745C120 18.5745 119.938 19.4236 119.786 20.251L118.14 29.1662L113.865 29.6167L109.047 18.5857ZM134.035 6.16416L137.3 5.82072L137.666 9.2975L134.401 9.64015L134.035 6.16416ZM134.888 15.9875C134.84 15.5418 134.581 15.3597 134.165 15.4036L132.977 15.5298L132.641 12.3198L136.233 11.9412C137.629 11.7943 138.288 12.3566 138.436 13.7527L139.413 23.0537C139.456 23.4698 139.717 23.6823 140.133 23.6391L141.321 23.5129L141.654 26.6934L138.062 27.0712C136.667 27.219 136.011 26.6862 135.861 25.2605L134.888 15.9875ZM149.162 23.2893C151.18 23.0776 152.381 20.7869 152.187 18.9451L152.15 18.5881L151.497 18.6576C149.536 18.8629 146.452 19.4882 146.669 21.5673C146.774 22.5785 147.616 23.4514 149.162 23.2893ZM151.403 16.0538L151.819 16.0099L151.807 15.8909C151.579 13.7208 150.633 13.0091 148.702 13.2136C148.02 13.2855 146.703 13.6033 146.79 14.4364L146.874 15.2383L143.37 15.6065L143.202 14.0019C142.91 11.208 146.853 10.4628 148.426 10.2975C153.474 9.76555 155.234 12.2559 155.59 15.6417L156.185 21.2877C156.228 21.7031 156.491 21.9163 156.905 21.8716L158.092 21.7478L158.428 24.9283C157.913 25.4618 156.917 26.5576 157.008 27.4202C157.108 28.3707 158.576 28.3372 158.576 28.3372L157.978 31.2237C157.978 31.2237 154.292 31.2804 154.026 28.7549C153.868 27.2397 154.855 26.056 155.643 25.2813L155.637 25.2214L154.894 25.2989C153.559 25.4394 152.99 24.5992 152.917 23.9155L152.902 23.7661C152.866 23.4403 152.899 23.1663 152.899 23.1663L152.839 23.1727C152.839 23.1727 152.021 25.9626 148.489 26.3348C145.727 26.6239 143.195 25.0872 142.886 22.1456C142.385 17.3629 148.879 16.3198 151.403 16.0538ZM159.581 22.7638L165.663 13.5003C166.255 12.5666 166.791 11.9708 166.791 11.9708L166.786 11.9109C166.786 11.9109 166.347 12.0171 165.396 12.1169L162.666 12.4045C162.25 12.4476 162.037 12.7112 162.081 13.1265L162.172 13.9891L158.758 14.3485L158.474 11.6441C158.328 10.2472 158.857 9.56108 160.28 9.41172L171.385 8.24321L171.601 10.2927L165.519 19.5553C164.924 20.4603 164.389 21.0865 164.389 21.0865L164.395 21.1464C164.395 21.1464 164.831 21.0098 165.811 20.906L169.136 20.5561C169.552 20.5122 169.768 20.2806 169.721 19.8357L169.633 19.0026L173.047 18.6432L173.328 21.3181C173.478 22.7438 172.947 23.3995 171.552 23.5473L159.795 24.7837L159.581 22.7638ZM184.353 12.5578C184.103 10.7512 182.725 9.63456 181.181 9.7967C179.251 9.99957 178.007 11.3031 177.792 13.2471L184.353 12.5578ZM180.876 6.883C185.211 6.42854 187.92 9.35821 188.341 13.3693C188.388 13.815 188.398 14.7751 188.398 14.7751L177.947 15.8741C178.526 18.5186 180.631 19.7079 182.917 19.4675C185.352 19.2119 186.986 17.3269 186.986 17.3269L188.834 19.7766C188.834 19.7766 186.757 22.3093 182.987 22.7062C177.97 23.2334 174.472 19.9355 174.02 15.6265C173.53 10.9604 176.333 7.36143 180.876 6.883ZM190.937 4.08352C190.89 3.63784 190.631 3.45494 190.214 3.49807L189.029 3.62267L188.691 0.415049L192.283 0.0356617C193.678 -0.110502 194.336 0.150676 194.483 1.54682L195.489 11.1146L196.616 10.9956C197.091 10.946 197.705 10.7927 197.981 10.2815L200.567 5.17296L204.754 4.73288L201.522 10.8406C200.969 11.8606 200.519 12.1481 200.519 12.1481L200.525 12.208C200.525 12.208 201.081 12.3598 201.719 13.2831L203.785 16.3717C204.067 16.7918 204.377 16.8789 205.09 16.8046L206.101 16.6984L206.434 19.8788L203.644 20.1711C202.366 20.3061 201.839 20.1528 201.131 19.1137L198.108 14.6257C197.756 14.1217 197.129 14.1569 196.654 14.2072L195.824 14.295L196.52 20.9219L192.749 21.3181L190.937 4.08352ZM95.1715 42.5095C95.1276 42.0933 94.8658 41.8801 94.4501 41.9232L93.174 42.0574L92.8269 38.7595L96.6271 38.3602C98.0516 38.21 98.7107 38.7715 98.8584 40.1677L99.5854 47.0909L108.878 46.1133L108.151 39.19C108.004 37.7931 108.562 37.1038 109.957 36.9576L113.758 36.5575L114.104 39.8546L112.828 39.9895C112.412 40.0335 112.199 40.2954 112.242 40.7124L114.042 57.8583L110.154 58.2672L109.223 49.4111L99.9301 50.3895L100.861 59.244L96.9718 59.6546L95.1715 42.5095ZM123.48 54.2521C125.498 54.0396 126.7 51.7497 126.505 49.9071L126.469 49.5509L125.815 49.6196C123.855 49.8265 120.767 50.4215 120.988 52.5309C121.094 53.5428 121.936 54.4142 123.48 54.2521ZM125.663 47.0222L126.137 46.9719L126.125 46.8537C125.896 44.6836 124.951 43.9711 123.021 44.1756C122.339 44.2475 121.021 44.5661 121.109 45.3976L121.193 46.2003L117.689 46.5685L117.52 44.9639C117.225 42.1413 121.171 41.4248 122.745 41.2595C127.793 40.7275 129.554 43.2179 129.911 46.6037L130.503 52.2505C130.547 52.6659 130.81 52.8791 131.225 52.8352L132.412 52.709L132.747 55.8895L129.362 56.2449C127.967 56.3918 127.35 55.6754 127.257 54.7848C127.216 54.3999 127.219 54.1267 127.219 54.1267L127.159 54.1331C127.159 54.1331 126.281 56.9302 122.869 57.2904C120.167 57.5731 117.524 56.1379 117.206 53.1083C116.707 48.3536 123.198 47.2818 125.663 47.0222ZM134.589 44.2802C134.541 43.8337 134.283 43.6516 133.868 43.6948L132.681 43.8202L132.343 40.6109L135.787 40.2475C137.122 40.1062 137.865 40.6006 137.999 41.8785L138.093 42.7698C138.152 43.3353 138.133 43.7267 138.133 43.7267L138.192 43.7203C138.647 41.4791 140.277 39.5654 142.593 39.321C142.919 39.2875 143.282 39.309 143.282 39.309L143.673 43.0238C143.673 43.0238 143.28 43.0031 142.745 43.0598C141.141 43.2283 139.397 44.3441 138.951 46.6723C138.822 47.4375 138.791 48.2833 138.885 49.1723L139.516 55.177L135.774 55.57L134.589 44.2802ZM152.583 38.1214C154.541 37.9153 158.159 38.3466 158.434 40.9616L158.621 42.7435L155.296 43.0933L155.209 42.2627C155.121 41.4304 153.836 41.2052 152.916 41.3018C150.305 41.575 148.643 43.7634 148.93 46.4982C149.255 49.5892 151.706 50.9239 154.14 50.6659C156.723 50.3943 158.407 48.1452 158.407 48.1452L160.256 50.594C160.256 50.594 158.286 53.5644 154.16 53.9981C149.172 54.5237 145.594 51.324 145.132 46.9263C144.683 42.6476 147.387 38.6677 152.583 38.1214ZM171.438 42.1772C171.189 40.3705 169.81 39.2531 168.266 39.4153C166.336 39.6181 165.092 40.9208 164.877 42.8657L171.438 42.1772ZM167.96 36.5032C172.295 36.0487 175.005 38.9784 175.425 42.9903C175.472 43.4352 175.482 44.3944 175.482 44.3944L165.03 45.4935C165.61 48.138 167.716 49.3281 170.001 49.0861C172.435 48.8305 174.069 46.9463 174.069 46.9463L175.916 49.3959C175.916 49.3959 173.841 51.9287 170.071 52.3264C165.053 52.8536 161.555 49.5557 161.104 45.2474C160.615 40.5814 163.418 36.9808 167.96 36.5032ZM178.764 39.6333C178.716 39.1868 178.458 39.0039 178.043 39.0487L176.857 39.1725L176.518 35.964L179.962 35.6014C181.297 35.4601 182.039 35.9529 182.173 37.2316L182.267 38.123C182.327 38.6884 182.308 39.0806 182.308 39.0806L182.367 39.0734C182.821 36.833 184.452 34.9177 186.767 34.6749C187.094 34.6414 187.457 34.6621 187.457 34.6621L187.847 38.3777C187.847 38.3777 187.455 38.3578 186.92 38.4145C185.316 38.583 183.572 39.6988 183.126 42.027C182.997 42.7922 182.965 43.6365 183.06 44.527L183.69 50.5309L179.949 50.9239L178.764 39.6333ZM191.735 44.8185C191.735 44.8185 193.899 46.8449 196.482 46.5733C197.639 46.4511 198.48 45.8816 198.374 44.8713C198.149 42.7323 190.166 43.6021 189.651 38.6988C189.333 35.6685 191.917 33.9832 195.063 33.6534C197.111 33.4369 200.45 33.778 200.708 36.2436L200.874 37.8194L197.549 38.1685L197.471 37.4265C197.396 36.7124 196.291 36.468 195.459 36.5559C194.123 36.6957 193.252 37.2699 193.346 38.1605C193.596 40.5383 201.592 39.2156 202.122 44.2674C202.422 47.1204 200.084 49.1691 196.791 49.5158C192.633 49.9526 190.212 47.4735 190.212 47.4735L191.735 44.8185ZM204.858 36.0168L202.899 36.222L202.583 33.2221L204.632 33.0072L204.198 28.8763L207.879 28.4889L208.313 32.619L211.757 32.258L212.072 35.258L208.629 35.6206L209.271 41.7419C209.533 44.2387 211.531 44.3888 212.569 44.2794C212.985 44.2363 213.247 44.1476 213.247 44.1476L213.593 47.4455C213.593 47.4455 213.127 47.5853 212.445 47.6572C210.337 47.8784 206.086 47.6963 205.552 42.6149L204.858 36.0168ZM214.644 35.738C214.448 35.3099 214.202 35.2444 213.756 35.2915L213.34 35.3347L213.002 32.1246L215.585 31.8539C216.833 31.7221 217.467 32.0456 217.886 33.1725L220.995 41.3481C221.286 42.1293 221.46 42.9208 221.46 42.9208L221.519 42.9144C221.519 42.9144 221.555 42.1021 221.708 41.2731L223.459 31.0847L226.784 30.7341L230.643 40.333C230.966 41.1109 231.139 41.9024 231.139 41.9024L231.198 41.8961C231.198 41.8961 231.202 41.0854 231.326 40.2611L232.639 31.6207C232.815 30.4314 233.369 29.9817 234.615 29.8499L237.198 29.5784L237.537 32.7884L237.121 32.8323C236.676 32.8786 236.477 32.9904 236.345 33.4545L233.922 45.245L229.676 45.6923L226.186 37.3171C225.864 36.5399 225.658 35.7196 225.658 35.7196L225.598 35.726C225.598 35.726 225.538 36.5743 225.384 37.4009L223.738 46.3169L219.464 46.7674L214.644 35.738ZM245.733 41.3913C247.752 41.1788 248.953 38.8889 248.759 37.0471L248.721 36.6901L248.069 36.7588C246.108 36.9648 243.02 37.5607 243.242 39.6693C243.347 40.6812 244.19 41.5534 245.733 41.3913ZM247.917 34.1613L248.391 34.1118L248.38 33.9944C248.151 31.8235 247.205 31.1119 245.275 31.3155C244.593 31.3866 243.275 31.7069 243.363 32.5392L243.447 33.3411L239.943 33.7077L239.774 32.1039C239.478 29.2812 243.425 28.564 244.998 28.3995C250.046 27.8691 251.807 30.3587 252.164 33.7452L252.758 39.3921C252.801 39.8066 253.063 40.0191 253.479 39.9752L254.666 39.8506L255 43.031L251.616 43.3873C250.221 43.5334 249.605 42.817 249.51 41.9256C249.47 41.539 249.471 41.2675 249.471 41.2675L249.411 41.2739C249.411 41.2739 248.534 44.0709 245.121 44.4304C242.419 44.7139 239.778 43.2794 239.459 40.2483C238.962 35.4936 245.452 34.4201 247.917 34.1613ZM105.801 76.2606C107.997 76.0297 109.095 74.473 108.863 72.2734C108.636 70.1033 107.242 68.8397 105.105 69.0642L101.928 69.398L102.683 76.5896L105.801 76.2606ZM98.0388 69.8086L96.1092 70.0099L95.7628 66.712L105.413 65.6968C109.361 65.2815 112.412 67.7543 112.842 71.8541C113.275 75.957 110.814 79.0984 106.863 79.5153L103.034 79.9179L103.798 87.1981L99.9078 87.607L98.0388 69.8086ZM123.269 82.2645C125.734 82.0041 127.583 79.8867 127.287 77.0649C126.993 74.271 124.741 72.5537 122.278 72.8141C119.843 73.0713 117.997 75.2182 118.291 78.0105C118.587 80.834 120.835 82.5209 123.269 82.2645ZM121.94 69.6057C126.572 69.1193 130.6 72.0298 131.087 76.6663C131.575 81.3308 128.239 84.9873 123.606 85.4737C119.005 85.9569 114.979 83.076 114.489 78.4115C114.003 73.7758 117.339 70.0889 121.94 69.6057ZM133.159 66.684C133.111 66.2375 132.853 66.0538 132.437 66.0978L131.251 66.224L130.913 63.0147L134.505 62.6354C135.901 62.49 136.591 63.0475 136.737 64.4436L138.338 79.6878C138.382 80.104 138.644 80.3164 139.059 80.2709L140.216 80.1511L140.551 83.3299L136.989 83.7045C135.563 83.8547 134.907 83.3236 134.759 81.8963L133.159 66.684ZM143.251 78.1791C143.251 78.1791 145.415 80.2054 147.998 79.9322C149.155 79.8124 149.995 79.2445 149.89 78.2318C149.665 76.0928 141.682 76.9618 141.167 72.0585C140.848 69.029 143.433 67.343 146.579 67.0123C148.628 66.7966 151.966 67.1385 152.224 69.6033L152.389 71.1792L149.065 71.529L148.987 70.7878C148.912 70.073 147.806 69.8301 146.975 69.9172C145.639 70.0578 144.767 70.6289 144.862 71.5194C145.112 73.8988 153.107 72.5753 153.638 77.628C153.938 80.4809 151.601 82.528 148.305 82.8739C144.148 83.3124 141.727 80.8332 141.727 80.8332L143.251 78.1791ZM155.663 64.3159C155.615 63.8694 155.356 63.6873 154.941 63.7312L153.753 63.8558L153.416 60.6466L157.008 60.2672C158.403 60.1218 159.061 60.3838 159.208 61.7807L160.213 71.3485L161.341 71.2287C161.817 71.18 162.431 71.0242 162.708 70.5154L165.292 65.4069L169.479 64.9652L166.248 71.0737C165.695 72.0937 165.244 72.3812 165.244 72.3812L165.25 72.4403C165.25 72.4403 165.807 72.5913 166.444 73.517L168.51 76.604C168.793 77.0249 169.102 77.1112 169.816 77.0377L170.825 76.9299L171.159 80.1103L168.369 80.4035C167.091 80.5377 166.565 80.3835 165.856 79.346L162.833 74.858C162.48 74.354 161.854 74.39 161.38 74.4403L160.549 74.5274L161.244 81.1543L157.474 81.5504L155.663 64.3159ZM172.09 58.6825L175.354 58.3391L175.721 61.8167L172.455 62.1601L172.09 58.6825ZM172.941 68.5075C172.895 68.0594 172.635 67.8789 172.219 67.9212L171.031 68.0474L170.695 64.8382L174.287 64.4588C175.683 64.3119 176.342 64.8741 176.489 66.2719L177.466 75.5713C177.51 75.989 177.772 76.1999 178.187 76.1575L179.375 76.0313L179.708 79.2102L176.116 79.5896C174.721 79.7365 174.065 79.203 173.915 77.7781L172.941 68.5075ZM190.909 68.3885C190.659 66.5834 189.28 65.4668 187.737 65.6289C185.805 65.8318 184.562 67.1361 184.346 69.0778L190.909 68.3885ZM187.432 62.7152C191.767 62.2616 194.476 65.1912 194.896 69.2016C194.944 69.6464 194.954 70.6073 194.954 70.6073L184.502 71.7055C185.081 74.35 187.187 75.5401 189.473 75.2981C191.908 75.0425 193.541 73.1592 193.541 73.1592L195.39 75.6096C195.39 75.6096 193.312 78.1399 189.543 78.5377C184.526 79.0648 181.027 75.767 180.576 71.4587C180.086 66.7926 182.888 63.1929 187.432 62.7152ZM208.207 68.192C207.844 64.7448 206.027 64.0036 203.977 64.22C201.692 64.4604 200.62 66.2559 200.888 68.811C201.167 71.4571 202.708 73.2758 205.142 73.0202C206.954 72.8301 208.567 71.6089 208.207 68.192ZM202.988 61.0803C206.491 60.7121 207.874 62.7304 207.874 62.7304L207.932 62.7224C207.932 62.7224 207.914 62.5459 207.892 62.3358C207.82 61.6537 208.22 60.8894 209.408 60.7632L212.912 60.3966L213.249 63.6058L212.09 63.7272C211.705 63.7679 211.46 64.0036 211.5 64.3901L212.595 74.8205C213.141 80.0201 209.309 82.4066 205.362 82.822C203.461 83.0216 201.388 82.699 199.851 82.0792L200.697 78.9874C200.697 78.9874 202.673 79.7988 204.987 79.5552C207.275 79.3148 209.16 78.1263 208.875 75.3916L208.8 74.6783C208.761 74.3213 208.745 73.8716 208.745 73.8716L208.686 73.878C207.929 75.251 206.695 76.0713 204.677 76.2837C200.341 76.7406 197.509 73.493 197.072 69.3325C196.635 65.1721 198.624 61.5387 202.988 61.0803ZM224.059 71.66C226.523 71.4012 228.372 69.2854 228.075 66.462C227.782 63.6697 225.53 61.9525 223.067 62.2112C220.632 62.4684 218.786 64.6154 219.081 67.4093C219.376 70.2327 221.625 71.9156 224.059 71.66ZM222.729 59.002C227.362 58.5156 231.389 61.4261 231.876 66.0626C232.365 70.7271 229.028 74.3836 224.396 74.87C219.793 75.3548 215.769 72.4723 215.279 67.8078C214.792 63.1721 218.127 59.4861 222.729 59.002Z" fill="#F4F4F4"/>
</svg>
